<?xml version="1.0" encoding="UTF-8" standalone="no"?>
<svg
   xmlns:dc="http://purl.org/dc/elements/1.1/"
   xmlns:cc="http://creativecommons.org/ns#"
   xmlns:rdf="http://www.w3.org/1999/02/22-rdf-syntax-ns#"
   xmlns:svg="http://www.w3.org/2000/svg"
   xmlns="http://www.w3.org/2000/svg"
   xmlns:sodipodi="http://sodipodi.sourceforge.net/DTD/sodipodi-0.dtd"
   xmlns:inkscape="http://www.inkscape.org/namespaces/inkscape"
   width="420"
   height="490"
   version="1.1"
   id="svg6207"
   sodipodi:docname="grid-transformed.svg"
   inkscape:version="0.92.1 r15371">
  <metadata
     id="metadata6213">
    <rdf:RDF>
      <cc:Work
         rdf:about="">
        <dc:format>image/svg+xml</dc:format>
        <dc:type
           rdf:resource="http://purl.org/dc/dcmitype/StillImage" />
        <dc:title></dc:title>
      </cc:Work>
    </rdf:RDF>
  </metadata>
  <defs
     id="defs6211" />
  <sodipodi:namedview
     pagecolor="#ffffff"
     bordercolor="#666666"
     borderopacity="1"
     objecttolerance="10"
     gridtolerance="10"
     guidetolerance="10"
     inkscape:pageopacity="0"
     inkscape:pageshadow="2"
     inkscape:window-width="2554"
     inkscape:window-height="1364"
     id="namedview6209"
     showgrid="false"
     units="px"
     inkscape:zoom="0.22421779"
     inkscape:cx="-544.9833"
     inkscape:cy="85.385822"
     inkscape:window-x="0"
     inkscape:window-y="48"
     inkscape:window-maximized="0"
     inkscape:current-layer="svg6207" />
  <g
     transform="scale(0.7) translate(150, 200)"
     id="g6205">
    <path
       class="grid-line"
       d="M-150,200L-141.1788,203L-132.7104,206L-124.5876,209L-116.8032,212L-109.35000000000001,215L-102.22079999999998,218L-95.4084,221L-88.90559999999998,224L-82.70520000000002,227L-76.8,230L-71.18280000000001,233L-65.8464,236L-60.78360000000001,239L-55.9872,242L-51.449999999999996,245L-47.16480000000001,248L-43.124399999999994,251L-39.321600000000025,254L-35.749200000000016,257L-32.4,260L-29.266799999999993,263L-26.342399999999998,266L-23.619600000000005,269L-21.09120000000001,272L-18.75,275L-16.588800000000003,278L-14.60039999999998,281L-12.777599999999989,284L-11.11319999999999,287L-9.600000000000009,290L-8.230800000000006,293L-6.998400000000005,296L-5.895600000000001,299L-4.915199999999986,302L-4.0499999999999865,305L-3.2927999999999957,308L-2.6364000000000054,311L-2.0736000000000088,314L-1.5971999999999986,317L-1.200000000000001,320L-0.8748000000000089,323L-0.6144000000000149,326L-0.41160000000001196,329L-0.25919999999999277,332L-0.14999999999998348,335L-0.0768000000000102,338L-0.032399999999999096,341L-0.0096000000000096,344L-0.0012000000000012,347L0,350L0.0012000000000012,353L0.009599999999992948,356L0.032399999999999096,359L0.07679999999999354,362L0.15000000000000013,365L0.25919999999999277,368L0.4115999999999953,371L0.6143999999999983,374L0.8747999999999923,377L1.200000000000001,380L1.5971999999999986,383L2.073599999999992,386L2.6364000000000054,389L3.2927999999999957,392L4.050000000000003,395L4.915200000000003,398L5.895600000000001,401L6.998400000000005,404L8.230800000000006,407L9.600000000000009,410L11.11319999999999,413L12.777599999999989,416L14.600399999999997,419L16.588800000000003,422L18.75,425L21.09120000000001,428L23.619600000000005,431L26.342399999999998,434L29.26680000000001,437L32.40000000000001,440L35.749200000000016,443L39.321600000000025,446L43.12440000000003,449L47.16479999999999,452L51.449999999999996,455L55.9872,458L60.78360000000001,461L65.8464,464L71.18280000000001,467L76.80000000000001,470L82.70520000000002,473L88.90560000000002,476L95.40840000000003,479L102.22080000000004,482L109.35000000000005,485L116.80319999999998,487.99999999999994L124.58759999999998,491L132.7104,493.99999999999994L141.1788,497L150,499.99999999999994"
       id="path6159"
       stroke-width="1"
       stroke="black"
       fill="none" />
    <path
       class="grid-line"
       d="M-76.79999999999998,102.40000000000003L-67.9788,105.40000000000006L-59.51040000000004,108.40000000000006L-51.3876,111.40000000000006L-43.60320000000005,114.40000000000003L-36.15000000000001,117.40000000000003L-29.020800000000015,120.40000000000003L-22.20839999999999,123.40000000000003L-15.705599999999983,126.40000000000003L-9.50520000000001,129.4L-3.600000000000037,132.4L2.017199999999985,135.4L7.353599999999979,138.4L12.416399999999996,141.4L17.212799999999994,144.4L21.750000000000004,147.40000000000003L26.035199999999993,150.40000000000003L30.0756,153.40000000000003L33.87839999999998,156.40000000000003L37.45079999999999,159.40000000000003L40.79999999999998,162.40000000000003L43.93319999999997,165.4L46.85759999999996,168.40000000000003L49.580399999999976,171.40000000000003L52.10879999999999,174.40000000000003L54.44999999999998,177.40000000000003L56.611199999999975,180.40000000000003L58.59959999999999,183.40000000000003L60.422399999999996,186.40000000000003L62.086799999999975,189.40000000000003L63.59999999999997,192.40000000000003L64.96919999999997,195.40000000000003L66.20159999999997,198.40000000000003L67.30439999999999,201.40000000000003L68.28479999999998,204.40000000000003L69.14999999999998,207.40000000000003L69.90719999999999,210.40000000000003L70.56359999999998,213.40000000000003L71.12639999999999,216.40000000000003L71.60279999999999,219.40000000000003L71.99999999999999,222.40000000000003L72.3252,225.40000000000003L72.58559999999999,228.40000000000003L72.78839999999998,231.40000000000003L72.9408,234.40000000000003L73.04999999999998,237.40000000000003L73.12319999999998,240.40000000000003L73.16759999999998,243.40000000000003L73.19039999999998,246.40000000000003L73.19879999999998,249.40000000000003L73.19999999999999,252.40000000000003L73.20119999999999,255.40000000000003L73.20959999999998,258.40000000000003L73.23239999999998,261.40000000000003L73.27679999999998,264.40000000000003L73.34999999999998,267.40000000000003L73.45919999999998,270.40000000000003L73.61159999999998,273.40000000000003L73.81439999999998,276.40000000000003L74.07479999999997,279.40000000000003L74.39999999999998,282.40000000000003L74.79719999999998,285.40000000000003L75.27359999999997,288.40000000000003L75.83639999999997,291.40000000000003L76.49279999999999,294.40000000000003L77.24999999999999,297.40000000000003L78.11519999999999,300.40000000000003L79.09559999999998,303.40000000000003L80.19839999999999,306.40000000000003L81.43079999999999,309.40000000000003L82.8,312.40000000000003L84.31319999999997,315.40000000000003L85.97759999999998,318.40000000000003L87.80039999999998,321.40000000000003L89.78879999999998,324.40000000000003L91.94999999999999,327.40000000000003L94.29119999999998,330.40000000000003L96.81960000000001,333.40000000000003L99.54240000000001,336.40000000000003L102.4668,339.40000000000003L105.6,342.4000000000001L108.94919999999999,345.4000000000001L112.5216,348.4000000000001L116.32440000000003,351.4000000000001L120.36479999999997,354.4L124.64999999999998,357.4L129.18719999999996,360.4L133.98359999999997,363.40000000000003L139.04639999999998,366.40000000000003L144.38279999999997,369.40000000000003L150,372.40000000000003L155.9052,375.40000000000003L162.10559999999998,378.40000000000003L168.6084,381.40000000000003L175.42080000000004,384.40000000000003L182.55,387.40000000000003L190.00319999999996,390.40000000000003L197.78759999999997,393.40000000000003L205.91039999999995,396.40000000000003L214.37879999999996,399.40000000000003L223.2,402.40000000000003"
       id="path6161"
       stroke-width="1"
       stroke="black"
       fill="none" />
    <path
       class="grid-line"
       d="M-32.400000000000006,43.19999999999999L-23.5788,46.20000000000002L-15.110399999999998,49.20000000000002L-6.987599999999986,52.20000000000002L0.7967999999999975,55.19999999999999L8.249999999999993,58.19999999999999L15.379200000000012,61.19999999999999L22.191600000000008,64.19999999999999L28.69440000000002,67.19999999999999L34.89479999999999,70.19999999999999L40.79999999999998,73.19999999999999L46.417199999999994,76.19999999999999L51.7536,79.20000000000002L56.8164,82.20000000000002L61.6128,85.20000000000002L66.15,88.20000000000002L70.43520000000001,91.20000000000002L74.47560000000003,94.20000000000002L78.2784,97.19999999999999L81.85079999999999,100.19999999999999L85.2,103.19999999999999L88.33319999999999,106.19999999999999L91.25759999999998,109.19999999999999L93.9804,112.19999999999999L96.5088,115.19999999999999L98.85000000000001,118.20000000000002L101.0112,121.20000000000002L102.9996,124.20000000000002L104.82240000000002,127.20000000000002L106.4868,130.2L108,133.2L109.3692,136.2L110.6016,139.2L111.7044,142.2L112.6848,145.2L113.55,148.2L114.30720000000001,151.2L114.9636,154.20000000000002L115.5264,157.20000000000002L116.00280000000001,160.20000000000002L116.4,163.20000000000002L116.7252,166.20000000000002L116.98559999999999,169.2L117.18839999999999,172.2L117.3408,175.2L117.45,178.2L117.52319999999999,181.2L117.5676,184.2L117.59039999999999,187.2L117.5988,190.2L117.60000000000001,193.2L117.6012,196.2L117.6096,199.20000000000002L117.6324,202.20000000000002L117.6768,205.20000000000002L117.75,208.20000000000002L117.8592,211.20000000000002L118.0116,214.20000000000002L118.2144,217.2L118.4748,220.2L118.80000000000001,223.2L119.19720000000001,226.2L119.6736,229.2L120.2364,232.2L120.8928,235.2L121.64999999999999,238.20000000000002L122.51520000000001,241.20000000000002L123.49560000000001,244.20000000000002L124.59840000000001,247.20000000000002L125.83080000000001,250.20000000000002L127.20000000000002,253.20000000000002L128.7132,256.2L130.3776,259.2L132.2004,262.2L134.18880000000001,265.2L136.35,268.2L138.6912,271.2L141.2196,274.2L143.9424,277.2L146.8668,280.20000000000005L150,283.20000000000005L153.34920000000002,286.20000000000005L156.92160000000004,289.20000000000005L160.72440000000003,292.20000000000005L164.76479999999998,295.2L169.05,298.2L173.5872,301.2L178.3836,304.2L183.4464,307.2L188.78279999999998,310.2L194.40000000000003,313.2L200.3052,316.2L206.50560000000002,319.20000000000005L213.00840000000002,322.20000000000005L219.82080000000005,325.20000000000005L226.95000000000005,328.20000000000005L234.40319999999997,331.2L242.18759999999997,334.2L250.3104,337.2L258.7788,340.2L267.6,343.2"
       id="path6163"
       stroke-width="1"
       stroke="black"
       fill="none" />
    <path
       class="grid-line"
       d="M-9.600000000000009,12.800000000000011L-0.7787999999999755,15.800000000000011L7.689600000000013,18.80000000000001L15.812400000000025,21.80000000000001L23.5968,24.80000000000001L31.049999999999997,27.80000000000001L38.179200000000016,30.80000000000001L44.99160000000001,33.80000000000001L51.49440000000002,36.80000000000001L57.694799999999994,39.799999999999955L63.59999999999999,42.799999999999955L69.21719999999999,45.79999999999998L74.5536,48.79999999999998L79.61640000000003,51.79999999999998L84.41280000000002,54.79999999999998L88.95000000000003,57.79999999999998L93.23520000000002,60.80000000000001L97.27560000000003,63.80000000000001L101.0784,66.79999999999998L104.6508,69.79999999999998L108,72.79999999999998L111.1332,75.79999999999998L114.0576,78.79999999999998L116.7804,81.79999999999998L119.30880000000002,84.79999999999998L121.65,87.79999999999998L123.8112,90.79999999999998L125.79960000000001,93.79999999999998L127.6224,96.80000000000001L129.2868,99.80000000000001L130.8,102.80000000000001L132.1692,105.80000000000001L133.4016,108.80000000000001L134.5044,111.80000000000001L135.4848,114.80000000000001L136.35,117.80000000000001L137.1072,120.79999999999998L137.7636,123.79999999999998L138.3264,126.79999999999998L138.80280000000002,129.79999999999998L139.20000000000002,132.79999999999998L139.5252,135.8L139.78560000000002,138.8L139.9884,141.8L140.1408,144.8L140.25,147.8L140.3232,150.79999999999998L140.3676,153.8L140.39040000000003,156.79999999999998L140.3988,159.79999999999998L140.4,162.79999999999998L140.40120000000002,165.79999999999998L140.4096,168.79999999999998L140.4324,171.8L140.4768,174.8L140.55,177.8L140.6592,180.8L140.8116,183.8L141.0144,186.79999999999998L141.2748,189.79999999999998L141.60000000000002,192.79999999999998L141.99720000000002,195.79999999999998L142.4736,198.79999999999998L143.03640000000001,201.8L143.6928,204.8L144.45000000000002,207.8L145.3152,210.8L146.2956,213.8L147.3984,216.8L148.63080000000002,219.8L150,222.8L151.5132,225.79999999999998L153.1776,228.79999999999998L155.0004,231.79999999999998L156.9888,234.79999999999998L159.14999999999998,237.79999999999998L161.4912,240.79999999999998L164.0196,243.8L166.74240000000003,246.8L169.66680000000002,249.8L172.8,252.8L176.1492,255.8L179.72160000000002,258.8L183.52440000000004,261.8L187.5648,264.79999999999995L191.85,267.79999999999995L196.3872,270.8L201.18359999999998,273.8L206.24640000000002,276.8L211.5828,279.8L217.20000000000002,282.8L223.10519999999997,285.8L229.30560000000003,288.8L235.80840000000006,291.8L242.62080000000003,294.8L249.75000000000006,297.8L257.2032,300.79999999999995L264.9876,303.79999999999995L273.1104,306.8L281.5788,309.8L290.4,312.8"
       id="path6165"
       stroke-width="1"
       stroke="black"
       fill="none" />
    <path
       class="grid-line"
       d="M-1.2000000000000028,1.6000000000000227L7.621200000000016,4.600000000000023L16.089600000000004,7.600000000000023L24.212400000000017,10.600000000000023L31.996799999999993,13.600000000000023L39.44999999999999,16.600000000000023L46.579200000000014,19.600000000000023L53.39160000000001,22.600000000000023L59.89440000000001,25.600000000000023L66.09479999999999,28.599999999999966L71.99999999999999,31.599999999999966L77.61719999999998,34.599999999999966L82.9536,37.599999999999966L88.01639999999999,40.599999999999966L92.8128,43.60000000000002L97.35000000000001,46.599999999999994L101.63520000000001,49.599999999999994L105.67560000000002,52.599999999999994L109.4784,55.599999999999994L113.0508,58.599999999999994L116.4,61.60000000000002L119.5332,64.60000000000002L122.4576,67.60000000000002L125.18039999999999,70.60000000000002L127.70879999999998,73.60000000000002L130.05,76.6L132.2112,79.6L134.1996,82.6L136.0224,85.6L137.6868,88.6L139.2,91.6L140.5692,94.6L141.8016,97.60000000000002L142.9044,100.60000000000002L143.88479999999998,103.60000000000002L144.75,106.60000000000002L145.5072,109.6L146.1636,112.6L146.7264,115.6L147.2028,118.6L147.6,121.6L147.92520000000002,124.6L148.1856,127.6L148.3884,130.6L148.54080000000002,133.6L148.65,136.60000000000002L148.7232,139.60000000000002L148.7676,142.60000000000002L148.7904,145.6L148.7988,148.6L148.8,151.6L148.8012,154.6L148.80960000000002,157.6L148.8324,160.6L148.8768,163.6L148.95,166.6L149.0592,169.6L149.2116,172.60000000000002L149.4144,175.59999999999997L149.6748,178.59999999999997L150,181.59999999999997L150.3972,184.59999999999997L150.8736,187.6L151.4364,190.6L152.09279999999998,193.6L152.85000000000002,196.6L153.7152,199.6L154.6956,202.60000000000002L155.79840000000002,205.60000000000002L157.0308,208.60000000000002L158.4,211.60000000000002L159.9132,214.59999999999997L161.5776,217.59999999999997L163.40040000000002,220.59999999999997L165.3888,223.6L167.55,226.60000000000002L169.8912,229.60000000000002L172.4196,232.60000000000002L175.1424,235.60000000000002L178.0668,238.60000000000002L181.20000000000002,241.60000000000002L184.5492,244.60000000000002L188.12160000000003,247.60000000000002L191.92440000000002,250.60000000000002L195.9648,253.6L200.25,256.6L204.7872,259.6L209.5836,262.6L214.6464,265.6L219.9828,268.6L225.6,271.6L231.5052,274.6L237.7056,277.6L244.2084,280.6L251.02080000000004,283.6L258.15000000000003,286.6L265.60319999999996,289.6L273.3876,292.6L281.5104,295.6L289.9788,298.6L298.8,301.59999999999997"
       id="path6167"
       stroke-width="1"
       stroke="black"
       fill="none" />
    <path
       class="grid-line"
       d="M0,0L8.821200000000005,3L17.289600000000007,6L25.41240000000002,9L33.196799999999996,12L40.64999999999998,15L47.7792,18L54.5916,21L61.09440000000001,24L67.29479999999998,27L73.19999999999999,30L78.81719999999999,33L84.1536,36L89.2164,39L94.0128,42L98.55000000000001,45L102.83520000000001,48L106.87560000000002,51L110.6784,53.99999999999997L114.2508,56.99999999999997L117.60000000000001,60L120.7332,63L123.6576,66L126.3804,69L128.90879999999999,72L131.25,75L133.4112,78L135.3996,81L137.22240000000002,84L138.8868,87L140.39999999999998,90L141.76919999999998,93.00000000000003L143.0016,96.00000000000003L144.1044,99.00000000000003L145.0848,102.00000000000003L145.95,105.00000000000003L146.7072,108L147.3636,111L147.9264,114L148.4028,117L148.8,120L149.1252,123L149.3856,125.99999999999997L149.5884,128.99999999999997L149.7408,131.99999999999997L149.85,135L149.9232,138L149.9676,141L149.9904,144L149.9988,147L150,150L150.0012,153L150.0096,156L150.0324,159L150.07680000000002,162L150.15,165L150.2592,168.00000000000003L150.41160000000002,171.00000000000003L150.61440000000002,174L150.87480000000002,177L151.2,180L151.5972,183L152.0736,186L152.6364,189L153.2928,192L154.04999999999998,195L154.9152,198L155.8956,201L156.9984,204L158.23080000000002,207L159.60000000000002,210L161.11319999999998,213L162.77759999999998,216L164.60039999999998,219L166.5888,222L168.75,225L171.09120000000001,228L173.61960000000002,231L176.3424,234L179.2668,237L182.40000000000003,240L185.7492,243L189.32160000000002,246.00000000000003L193.12440000000004,249.00000000000003L197.1648,252L201.45,255L205.9872,258L210.7836,261L215.84640000000002,264L221.18280000000001,267L226.8,270L232.70520000000002,273L238.90560000000002,276L245.40840000000003,279L252.22080000000005,282L259.35,285L266.80319999999995,288L274.5876,291L282.7104,294L291.1788,297L300,300"
       id="path6169"
       stroke-width="1"
       stroke="black"
       fill="none" />
    <path
       class="grid-line"
       d="M1.1999999999999886,-1.599999999999966L10.021200000000022,1.3999999999999773L18.489599999999996,4.399999999999977L26.612400000000008,7.399999999999977L34.396799999999985,10.399999999999977L41.849999999999994,13.399999999999977L48.97920000000002,16.399999999999977L55.79160000000002,19.399999999999977L62.294400000000024,22.399999999999977L68.49479999999998,25.399999999999977L74.39999999999998,28.399999999999977L80.01719999999999,31.399999999999977L85.3536,34.400000000000034L90.4164,37.400000000000034L95.2128,40.400000000000034L99.75,43.400000000000034L104.03520000000002,46.400000000000006L108.07560000000002,49.400000000000034L111.8784,52.39999999999998L115.4508,55.400000000000006L118.80000000000001,58.400000000000006L121.93319999999999,61.39999999999998L124.8576,64.39999999999998L127.5804,67.39999999999998L130.1088,70.39999999999998L132.45,73.39999999999998L134.6112,76.39999999999998L136.5996,79.39999999999998L138.4224,82.39999999999998L140.08679999999998,85.39999999999998L141.6,88.39999999999998L142.9692,91.4L144.20159999999998,94.4L145.3044,97.4L146.2848,100.4L147.15,103.4L147.90720000000002,106.4L148.5636,109.4L149.12640000000002,112.4L149.6028,115.4L150,118.4L150.3252,121.4L150.5856,124.39999999999998L150.7884,127.39999999999998L150.9408,130.4L151.05,133.4L151.1232,136.4L151.1676,139.4L151.19039999999998,142.4L151.1988,145.4L151.2,148.4L151.2012,151.4L151.20960000000002,154.4L151.2324,157.4L151.2768,160.4L151.35000000000002,163.4L151.45919999999998,166.4L151.6116,169.4L151.8144,172.39999999999998L152.0748,175.39999999999998L152.4,178.39999999999998L152.7972,181.39999999999998L153.27360000000002,184.39999999999998L153.8364,187.39999999999998L154.4928,190.39999999999998L155.25000000000003,193.4L156.11520000000002,196.4L157.0956,199.4L158.1984,202.4L159.4308,205.4L160.8,208.40000000000003L162.3132,211.39999999999998L163.9776,214.39999999999998L165.80040000000002,217.39999999999998L167.7888,220.39999999999998L169.95,223.39999999999998L172.2912,226.39999999999998L174.8196,229.39999999999998L177.5424,232.4L180.4668,235.4L183.60000000000002,238.4L186.94920000000002,241.4L190.52160000000003,244.4L194.32440000000003,247.4L198.3648,250.39999999999998L202.65,253.39999999999998L207.18720000000002,256.4L211.9836,259.4L217.0464,262.4L222.3828,265.4L228,268.4L233.9052,271.4L240.1056,274.4L246.60840000000002,277.40000000000003L253.42080000000004,280.40000000000003L260.55000000000007,283.40000000000003L268.0032,286.4L275.7876,289.4L283.9104,292.4L292.3788,295.4L301.2,298.4"
       id="path6171"
       stroke-width="1"
       stroke="black"
       fill="none" />
    <path
       class="grid-line"
       d="M9.599999999999994,-12.800000000000068L18.421200000000027,-9.800000000000011L26.8896,-6.800000000000068L35.01240000000004,-3.7999999999999545L42.79679999999999,-0.8000000000000682L50.25,2.1999999999999886L57.3792,5.199999999999989L64.19160000000002,8.199999999999989L70.69440000000003,11.199999999999989L76.8948,14.199999999999989L82.8,17.19999999999999L88.4172,20.19999999999999L93.7536,23.19999999999999L98.8164,26.19999999999999L103.61280000000001,29.19999999999999L108.15,32.19999999999999L112.43520000000002,35.19999999999999L116.47560000000003,38.19999999999999L120.2784,41.19999999999999L123.8508,44.19999999999999L127.20000000000002,47.19999999999999L130.3332,50.19999999999996L133.2576,53.19999999999996L135.9804,56.19999999999996L138.5088,59.19999999999999L140.85000000000002,62.19999999999999L143.0112,65.19999999999999L144.99960000000002,68.19999999999999L146.82240000000002,71.19999999999999L148.4868,74.19999999999999L150,77.19999999999999L151.3692,80.19999999999999L152.6016,83.19999999999999L153.70440000000002,86.19999999999999L154.68480000000002,89.19999999999999L155.55,92.20000000000002L156.30720000000002,95.19999999999996L156.9636,98.19999999999999L157.5264,101.19999999999999L158.0028,104.19999999999999L158.4,107.19999999999999L158.7252,110.19999999999999L158.9856,113.19999999999999L159.1884,116.19999999999999L159.3408,119.19999999999999L159.45000000000002,122.19999999999999L159.5232,125.19999999999999L159.5676,128.2L159.5904,131.19999999999996L159.5988,134.2L159.60000000000002,137.2L159.6012,140.2L159.60960000000003,143.2L159.63240000000002,146.2L159.67680000000001,149.2L159.75000000000003,152.2L159.8592,155.2L160.01160000000002,158.2L160.2144,161.19999999999996L160.47480000000002,164.19999999999996L160.8,167.19999999999996L161.1972,170.19999999999996L161.67360000000002,173.2L162.2364,176.2L162.8928,179.2L163.65000000000003,182.2L164.51520000000002,185.2L165.4956,188.2L166.59840000000003,191.2L167.8308,194.2L169.20000000000002,197.2L170.7132,200.19999999999996L172.3776,203.2L174.2004,206.2L176.18880000000001,209.2L178.35000000000002,212.2L180.6912,215.2L183.2196,218.2L185.94240000000002,221.2L188.8668,224.2L192.00000000000003,227.2L195.34920000000002,230.2L198.92160000000004,233.2L202.72440000000003,236.2L206.7648,239.19999999999996L211.05,242.2L215.58720000000002,245.2L220.3836,248.2L225.4464,251.2L230.7828,254.2L236.4,257.2L242.3052,260.2L248.50560000000002,263.2L255.00840000000002,266.2L261.8208000000001,269.2L268.95000000000005,272.2L276.40319999999997,275.2L284.18760000000003,278.2L292.3104,281.2L300.7788,284.2L309.6,287.2"
       id="path6173"
       stroke-width="1"
       stroke="black"
       fill="none" />
    <path
       class="grid-line"
       d="M32.400000000000006,-43.200000000000045L41.22120000000001,-40.19999999999999L49.68960000000001,-37.200000000000045L57.812400000000025,-34.19999999999999L65.5968,-31.200000000000045L73.05000000000001,-28.200000000000045L80.17920000000004,-25.200000000000045L86.9916,-22.200000000000045L93.49440000000004,-19.200000000000045L99.69479999999999,-16.19999999999999L105.6,-13.199999999999989L111.21720000000002,-10.199999999999989L116.5536,-7.199999999999989L121.61640000000003,-4.199999999999989L126.41280000000002,-1.1999999999999886L130.95000000000005,1.8000000000000114L135.23520000000002,4.800000000000011L139.27560000000003,7.800000000000011L143.07840000000002,10.799999999999955L146.6508,13.799999999999955L150,16.799999999999955L153.13320000000002,19.80000000000001L156.0576,22.80000000000001L158.78040000000001,25.80000000000001L161.30880000000002,28.80000000000001L163.65000000000003,31.80000000000001L165.8112,34.80000000000001L167.79960000000003,37.80000000000001L169.6224,40.80000000000001L171.2868,43.799999999999955L172.8,46.79999999999998L174.16920000000002,49.79999999999998L175.40160000000003,52.79999999999998L176.50440000000003,55.79999999999998L177.4848,58.79999999999998L178.35000000000002,61.79999999999998L179.1072,64.79999999999998L179.76360000000003,67.79999999999998L180.3264,70.79999999999998L180.8028,73.80000000000001L181.20000000000002,76.80000000000001L181.5252,79.80000000000001L181.78560000000002,82.79999999999998L181.9884,85.79999999999998L182.1408,88.79999999999998L182.25,91.79999999999998L182.3232,94.79999999999998L182.36760000000004,97.79999999999998L182.39040000000003,100.79999999999998L182.3988,103.79999999999998L182.40000000000003,106.79999999999998L182.4012,109.80000000000001L182.4096,112.80000000000001L182.43240000000003,115.80000000000001L182.4768,118.80000000000001L182.55,121.80000000000001L182.65920000000003,124.80000000000001L182.8116,127.80000000000001L183.01440000000002,130.79999999999998L183.2748,133.79999999999998L183.60000000000002,136.79999999999998L183.9972,139.79999999999998L184.4736,142.79999999999998L185.03640000000001,145.79999999999998L185.69280000000003,148.8L186.45000000000002,151.8L187.3152,154.8L188.29560000000004,157.8L189.39840000000004,160.8L190.63080000000002,163.8L192.00000000000003,166.8L193.51319999999998,169.79999999999998L195.1776,172.79999999999998L197.0004,175.79999999999998L198.98880000000003,178.8L201.15000000000003,181.8L203.4912,184.8L206.01960000000003,187.8L208.74240000000003,190.8L211.66680000000002,193.8L214.8,196.8L218.14920000000004,199.8L221.72160000000005,202.8L225.5244,205.8L229.5648,208.79999999999998L233.85,211.79999999999998L238.3872,214.8L243.1836,217.8L248.2464,220.8L253.58280000000002,223.8L259.20000000000005,226.8L265.1052,229.8L271.3056,232.8L277.8084,235.8L284.6208000000001,238.8L291.75000000000006,241.8L299.2032,244.79999999999998L306.98760000000004,247.79999999999998L315.11039999999997,250.79999999999998L323.57880000000006,253.79999999999998L332.40000000000003,256.8"
       id="path6175"
       stroke-width="1"
       stroke="black"
       fill="none" />
    <path
       class="grid-line"
       d="M76.80000000000001,-102.40000000000003L85.62120000000004,-99.40000000000003L94.08960000000002,-96.40000000000003L102.21240000000003,-93.40000000000003L109.99680000000001,-90.40000000000003L117.44999999999999,-87.40000000000003L124.57920000000001,-84.40000000000003L131.3916,-81.40000000000003L137.89440000000005,-78.40000000000003L144.0948,-75.40000000000003L150,-72.40000000000003L155.61720000000003,-69.40000000000003L160.95360000000002,-66.40000000000003L166.01640000000003,-63.400000000000034L170.81280000000004,-60.400000000000034L175.35000000000005,-57.400000000000034L179.63520000000003,-54.39999999999998L183.67560000000003,-51.39999999999998L187.47840000000002,-48.39999999999998L191.0508,-45.40000000000009L194.40000000000003,-42.39999999999998L197.53320000000002,-39.400000000000034L200.4576,-36.400000000000034L203.1804,-33.400000000000034L205.70880000000002,-30.400000000000034L208.05,-27.400000000000034L210.2112,-24.400000000000034L212.19960000000003,-21.400000000000034L214.0224,-18.400000000000034L215.6868,-15.400000000000034L217.20000000000002,-12.400000000000034L218.5692,-9.400000000000034L219.80160000000004,-6.400000000000034L220.9044,-3.400000000000034L221.8848,-0.4000000000000341L222.75000000000003,2.599999999999966L223.5072,5.599999999999966L224.16360000000003,8.599999999999966L224.7264,11.599999999999966L225.20280000000002,14.599999999999966L225.6,17.599999999999966L225.92520000000002,20.600000000000023L226.18560000000002,23.599999999999966L226.38840000000002,26.599999999999966L226.54080000000002,29.599999999999966L226.65,32.599999999999966L226.72320000000002,35.599999999999966L226.76760000000002,38.599999999999966L226.79040000000003,41.599999999999966L226.79880000000003,44.59999999999994L226.8,47.599999999999966L226.80120000000002,50.599999999999966L226.80960000000002,53.599999999999966L226.8324,56.599999999999966L226.8768,59.599999999999966L226.95000000000002,62.599999999999966L227.0592,65.59999999999997L227.2116,68.59999999999997L227.41440000000003,71.59999999999997L227.6748,74.59999999999997L228,77.59999999999997L228.39720000000003,80.6L228.8736,83.6L229.43640000000002,86.6L230.09280000000004,89.6L230.85000000000002,92.6L231.7152,95.6L232.6956,98.6L233.79840000000002,101.6L235.0308,104.6L236.4,107.6L237.91320000000002,110.59999999999994L239.5776,113.59999999999994L241.40040000000002,116.59999999999994L243.3888,119.59999999999994L245.55,122.59999999999997L247.8912,125.59999999999997L250.4196,128.59999999999997L253.14240000000004,131.59999999999997L256.0668,134.59999999999997L259.20000000000005,137.59999999999997L262.54920000000004,140.59999999999997L266.1216,143.59999999999997L269.92440000000005,146.59999999999997L273.9648,149.59999999999997L278.25,152.59999999999997L282.7872,155.59999999999997L287.5836,158.59999999999997L292.6464,161.59999999999997L297.9828,164.59999999999997L303.6,167.59999999999997L309.5052,170.59999999999997L315.70560000000006,173.59999999999997L322.20840000000004,176.59999999999997L329.02080000000007,179.6L336.1500000000001,182.6L343.60319999999996,185.59999999999997L351.3876,188.59999999999997L359.5104,191.59999999999997L367.9788,194.59999999999997L376.8,197.59999999999997"
       id="path6177"
       stroke-width="1"
       stroke="black"
       fill="none" />
    <path
       class="grid-line"
       d="M150,-199.99999999999994L158.8212,-197L167.2896,-193.99999999999994L175.4124,-191L183.1968,-188L190.64999999999998,-185L197.77920000000003,-182L204.5916,-179L211.0944,-176L217.29479999999998,-173L223.2,-170L228.81719999999999,-167L234.15359999999998,-164L239.2164,-161L244.0128,-158L248.55,-155L252.8352,-152L256.8756,-149L260.67839999999995,-146L264.25079999999997,-143L267.6,-139.99999999999994L270.7332,-136.99999999999994L273.6576,-134.00000000000006L276.3804,-130.99999999999994L278.9088,-128L281.25,-124.99999999999994L283.4112,-122L285.3996,-118.99999999999994L287.2224,-116L288.8868,-113L290.4,-110L291.7692,-107L293.0016,-104L294.1044,-101L295.08480000000003,-98L295.95,-95L296.7072,-92L297.3636,-89L297.9264,-86L298.4028,-83L298.8,-80L299.1252,-77L299.3856,-74L299.58840000000004,-71L299.74080000000004,-68L299.85,-64.99999999999994L299.9232,-61.99999999999994L299.9676,-58.99999999999994L299.99039999999997,-55.99999999999994L299.9988,-53L300,-49.99999999999994L300.00120000000004,-47L300.00960000000003,-43.99999999999994L300.0324,-41L300.0768,-37.99999999999994L300.15000000000003,-35L300.25919999999996,-31.999999999999943L300.41159999999996,-29L300.6144,-26L300.8748,-23L301.2,-20L301.5972,-17L302.0736,-14L302.6364,-11L303.29279999999994,-8L304.05,-5L304.91519999999997,-2L305.8956,1L306.9984,4L308.2308,7L309.6,10.000000000000057L311.11319999999995,13L312.7776,16L314.6004,19L316.5888,22L318.75,25L321.0912000000001,28L323.6196,31L326.34239999999994,34L329.2668,37L332.40000000000003,40L335.74920000000003,43L339.32160000000005,46.00000000000003L343.1244,49.00000000000003L347.1648,52L351.45,55L355.98720000000003,58L360.7836,61L365.8464,64L371.1828,67.00000000000003L376.8,70.00000000000003L382.7052,73.00000000000003L388.90560000000005,76.00000000000003L395.4084,79.00000000000003L402.22080000000005,82.00000000000003L409.35,85.00000000000003L416.80319999999995,88L424.5876,91L432.71040000000005,94L441.1788,97L450,100"
       id="path6179"
       stroke-width="1"
       stroke="black"
       fill="none" />
    <path
       class="grid-line"
       d="M-150,200L-141.1788,188.2384L-132.7104,176.9472L-124.58760000000001,166.11679999999998L-116.8032,155.7376L-109.35000000000001,145.79999999999998L-102.22079999999998,136.2944L-95.4084,127.21120000000002L-88.90559999999998,118.54079999999999L-82.70520000000002,110.27360000000002L-76.79999999999998,102.40000000000003L-71.18280000000001,94.91039999999998L-65.8464,87.7952L-60.78360000000001,81.04480000000001L-55.987199999999994,74.64959999999999L-51.449999999999996,68.59999999999997L-47.16480000000001,62.88640000000001L-43.124399999999994,57.49919999999997L-39.32160000000002,52.428800000000024L-35.749200000000016,47.66559999999998L-32.400000000000006,43.19999999999999L-29.26679999999999,39.022400000000005L-26.342399999999998,35.1232L-23.619600000000005,31.49279999999999L-21.091200000000015,28.1216L-18.75,25L-16.588800000000006,22.11840000000001L-14.60039999999998,19.46719999999999L-12.777599999999993,17.036800000000028L-11.113199999999992,14.81759999999997L-9.600000000000009,12.800000000000011L-8.230800000000002,10.974400000000003L-6.998400000000004,9.331200000000024L-5.895600000000002,7.860799999999983L-4.9151999999999845,6.55359999999996L-4.049999999999983,5.399999999999977L-3.2927999999999997,4.3904L-2.636400000000009,3.515199999999993L-2.073600000000013,2.7647999999999797L-1.5972000000000008,2.129599999999982L-1.2000000000000028,1.6000000000000227L-0.8748000000000076,1.16640000000001L-0.6144000000000176,0.8192000000000235L-0.4116000000000213,0.5488000000000284L-0.25919999999999277,0.34559999999999036L-0.14999999999997726,0.19999999999998863L-0.07680000000001996,0.10239999999998872L-0.032399999999995543,0.04319999999995616L-0.009600000000006048,0.012799999999970169L-0.0012000000000114142,0.001599999999996271L0,0L0.0012000000000114142,-0.0015999999999394277L0.009600000000006048,-0.012799999999970169L0.032399999999995543,-0.04320000000006985L0.07679999999999154,-0.10239999999998872L0.15000000000000568,-0.19999999999998863L0.25919999999999277,-0.34559999999999036L0.41159999999999286,-0.5487999999999715L0.6143999999999892,-0.8192000000000235L0.8747999999999934,-1.1663999999999533L1.1999999999999886,-1.599999999999966L1.5971999999999866,-2.129600000000039L2.073599999999999,-2.7647999999999797L2.636400000000009,-3.515199999999993L3.2927999999999997,-4.3904000000000565L4.050000000000011,-5.399999999999977L4.915199999999999,-6.55359999999996L5.895600000000002,-7.86080000000004L6.998400000000004,-9.331200000000024L8.230800000000016,-10.974400000000003L9.599999999999994,-12.800000000000068L11.113199999999978,-14.817600000000027L12.777599999999978,-17.036800000000028L14.600400000000008,-19.46719999999999L16.588799999999992,-22.11840000000001L18.75,-25.000000000000057L21.091200000000015,-28.1216L23.61959999999999,-31.49279999999999L26.342399999999998,-35.123200000000054L29.266800000000018,-39.02240000000006L32.400000000000006,-43.200000000000045L35.7492,-47.66560000000004L39.32160000000002,-52.42879999999997L43.12440000000004,-57.49920000000009L47.164799999999985,-62.88639999999998L51.44999999999999,-68.59999999999997L55.9872,-74.64959999999996L60.78360000000001,-81.04480000000001L65.84640000000002,-87.79519999999997L71.18280000000001,-94.91039999999998L76.80000000000001,-102.40000000000003L82.70520000000002,-110.27359999999999L88.90560000000002,-118.54080000000005L95.40840000000003,-127.21120000000002L102.22080000000005,-136.29440000000005L109.35000000000005,-145.80000000000007L116.80319999999998,-155.7376L124.58759999999998,-166.11679999999996L132.7104,-176.94720000000007L141.1788,-188.23839999999996L150,-199.99999999999994"
       id="path6181"
       stroke-width="1"
       stroke="black"
       fill="none" />
    <path
       class="grid-line"
       d="M-76.8,230L-67.9788,218.23839999999998L-59.510400000000025,206.9472L-51.3876,196.11679999999996L-43.603200000000044,185.7376L-36.150000000000006,175.8L-29.02080000000001,166.2944L-22.208399999999994,157.2112L-15.705599999999986,148.54079999999996L-9.505200000000013,140.27360000000002L-3.600000000000037,132.4L2.017199999999985,124.91040000000001L7.353599999999979,117.79520000000002L12.416399999999996,111.04479999999995L17.212799999999994,104.64959999999996L21.750000000000004,98.59999999999997L26.035199999999993,92.88639999999998L30.0756,87.49919999999997L33.87839999999998,82.42880000000002L37.45079999999999,77.66559999999998L40.79999999999998,73.19999999999999L43.93319999999997,69.0224L46.85759999999996,65.1232L49.580399999999976,61.49280000000002L52.10879999999999,58.12160000000003L54.44999999999998,55L56.611199999999975,52.11840000000001L58.59959999999999,49.46719999999999L60.422399999999996,47.03679999999997L62.086799999999975,44.8176L63.59999999999997,42.80000000000001L64.96919999999997,40.9744L66.20159999999997,39.331200000000024L67.30439999999999,37.86079999999998L68.28479999999998,36.55360000000002L69.14999999999998,35.39999999999998L69.90719999999999,34.3904L70.56359999999998,33.51519999999999L71.12639999999999,32.76479999999998L71.60279999999999,32.12959999999998L71.99999999999999,31.599999999999966L72.3252,31.16640000000001L72.58559999999999,30.819199999999967L72.78839999999998,30.54879999999997L72.9408,30.34559999999999L73.04999999999998,30.19999999999999L73.12319999999998,30.102400000000046L73.16759999999998,30.043200000000013L73.19039999999998,30.012800000000027L73.19879999999998,30.001599999999996L73.19999999999999,30L73.20119999999999,29.998400000000004L73.20959999999998,29.987199999999973L73.23239999999998,29.956799999999987L73.27679999999998,29.897599999999954L73.34999999999998,29.799999999999955L73.45919999999998,29.65440000000001L73.61159999999998,29.45119999999997L73.81439999999998,29.180799999999977L74.07479999999997,28.83359999999999L74.39999999999998,28.399999999999977L74.79719999999998,27.87039999999996L75.27359999999997,27.23520000000002L75.83639999999997,26.484800000000007L76.49279999999999,25.6096L77.24999999999999,24.599999999999966L78.11519999999999,23.446399999999983L79.09559999999998,22.13919999999996L80.19839999999999,20.668799999999976L81.43079999999999,19.025599999999997L82.8,17.19999999999999L84.31319999999997,15.182399999999973L85.9776,12.963200000000029L87.80039999999997,10.532800000000009L89.78879999999998,7.881599999999992L91.94999999999999,5L94.29119999999998,1.8783999999999423L96.81959999999998,-1.4928000000000452L99.54239999999999,-5.123199999999997L102.46679999999998,-9.022400000000005L105.6,-13.199999999999989L108.94919999999999,-17.66560000000004L112.5216,-22.428800000000024L116.3244,-27.49920000000003L120.36479999999997,-32.88639999999998L124.64999999999998,-38.60000000000002L129.18719999999996,-44.64960000000002L133.98359999999997,-51.04479999999995L139.04639999999998,-57.79520000000002L144.38279999999997,-64.91040000000004L150,-72.40000000000003L155.9052,-80.27359999999999L162.10559999999998,-88.54080000000005L168.6084,-97.21120000000008L175.42080000000004,-106.29440000000005L182.55,-115.80000000000001L190.00319999999996,-125.73759999999993L197.78759999999997,-136.1168L205.91039999999995,-146.9472L214.37879999999996,-158.2384L223.2,-170"
       id="path6183"
       stroke-width="1"
       stroke="black"
       fill="none" />
    <path
       class="grid-line"
       d="M-32.4,260L-23.5788,248.2384L-15.110399999999993,236.9472L-6.987599999999993,226.11679999999998L0.7967999999999975,215.7376L8.249999999999991,205.8L15.37920000000001,196.2944L22.19160000000001,187.21120000000002L28.69440000000002,178.5408L34.89479999999999,170.27360000000002L40.79999999999998,162.40000000000003L46.417199999999994,154.9104L51.7536,147.7952L56.8164,141.04479999999998L61.6128,134.6496L66.15,128.6L70.43520000000001,122.88639999999998L74.47560000000003,117.49919999999997L78.2784,112.4288L81.85079999999999,107.66560000000001L85.2,103.19999999999999L88.33319999999999,99.02240000000003L91.25759999999998,95.12320000000003L93.9804,91.49280000000002L96.5088,88.1216L98.85000000000001,85L101.0112,82.11839999999998L102.9996,79.46719999999999L104.82240000000002,77.0368L106.4868,74.81760000000003L108,72.80000000000001L109.3692,70.9744L110.6016,69.3312L111.7044,67.86080000000001L112.6848,66.55359999999999L113.55,65.39999999999998L114.30720000000001,64.39040000000003L114.9636,63.51519999999999L115.5264,62.76480000000001L116.00280000000001,62.12959999999998L116.4,61.60000000000002L116.7252,61.16640000000001L116.98559999999999,60.819199999999995L117.18839999999999,60.54880000000003L117.3408,60.34559999999999L117.45,60.19999999999999L117.52319999999999,60.10240000000002L117.5676,60.043199999999985L117.59039999999999,60.0128L117.5988,60.001599999999996L117.60000000000001,60L117.6012,59.998400000000004L117.6096,59.9872L117.6324,59.956800000000015L117.6768,59.89759999999998L117.75,59.80000000000001L117.8592,59.65440000000001L118.0116,59.45120000000003L118.2144,59.18079999999998L118.4748,58.83360000000002L118.80000000000001,58.400000000000006L119.19720000000001,57.87040000000002L119.6736,57.23520000000002L120.2364,56.48479999999998L120.8928,55.6096L121.64999999999999,54.599999999999994L122.51520000000001,53.44640000000001L123.49560000000001,52.13920000000002L124.59840000000001,50.668799999999976L125.83080000000001,49.02559999999997L127.20000000000002,47.19999999999999L128.7132,45.18240000000003L130.3776,42.96320000000003L132.2004,40.53280000000001L134.18880000000001,37.88159999999999L136.35,35L138.6912,31.8784L141.2196,28.50720000000001L143.9424,24.876800000000003L146.8668,20.977599999999995L150,16.799999999999955L153.34920000000002,12.334400000000016L156.92160000000004,7.571199999999976L160.72440000000003,2.5007999999999697L164.76479999999998,-2.8863999999999805L169.05,-8.599999999999966L173.5872,-14.64960000000002L178.3836,-21.044799999999952L183.4464,-27.795200000000023L188.78279999999998,-34.91039999999998L194.40000000000003,-42.39999999999998L200.3052,-50.273600000000044L206.50560000000002,-58.54080000000005L213.00840000000002,-67.21120000000002L219.82080000000005,-76.29440000000005L226.95000000000005,-85.80000000000007L234.40319999999997,-95.73759999999999L242.18759999999997,-106.11680000000001L250.3104,-116.94720000000001L258.7788,-128.23839999999996L267.6,-139.99999999999994"
       id="path6185"
       stroke-width="1"
       stroke="black"
       fill="none" />
    <path
       class="grid-line"
       d="M-9.600000000000009,290L-0.7787999999999795,278.2384L7.689600000000013,266.9472L15.812400000000027,256.1168L23.5968,245.73760000000001L31.049999999999994,235.8L38.179200000000016,226.2944L44.99160000000001,217.21120000000002L51.49440000000002,208.5408L57.694799999999994,200.27360000000004L63.59999999999999,192.40000000000003L69.21719999999999,184.91040000000004L74.5536,177.79520000000002L79.61640000000003,171.0448L84.41280000000002,164.6496L88.95000000000003,158.6L93.23520000000002,152.8864L97.27560000000003,147.4992L101.0784,142.42880000000002L104.6508,137.6656L108,133.20000000000002L111.1332,129.0224L114.0576,125.12320000000003L116.7804,121.49279999999999L119.30880000000002,118.1216L121.65,115.00000000000003L123.8112,112.11840000000001L125.79960000000001,109.46720000000002L127.6224,107.03680000000003L129.2868,104.8176L130.8,102.80000000000001L132.1692,100.97440000000003L133.4016,99.33120000000002L134.5044,97.86079999999998L135.4848,96.55359999999999L136.35,95.4L137.1072,94.39040000000003L137.7636,93.51520000000002L138.3264,92.76480000000001L138.80280000000002,92.12960000000001L139.20000000000002,91.6L139.5252,91.16640000000001L139.78560000000002,90.81920000000002L139.9884,90.54880000000003L140.1408,90.34560000000002L140.25,90.20000000000002L140.3232,90.10240000000002L140.3676,90.04320000000001L140.39040000000003,90.0128L140.3988,90.0016L140.4,90L140.40120000000002,89.99840000000003L140.4096,89.98720000000003L140.4324,89.95680000000002L140.4768,89.89760000000001L140.55,89.80000000000001L140.6592,89.65440000000001L140.8116,89.4512L141.0144,89.1808L141.2748,88.83360000000002L141.60000000000002,88.40000000000003L141.99720000000002,87.87040000000002L142.4736,87.23520000000002L143.03640000000001,86.4848L143.6928,85.6096L144.45000000000002,84.60000000000002L145.3152,83.44640000000001L146.2956,82.13919999999999L147.3984,80.6688L148.63080000000002,79.0256L150,77.19999999999999L151.5132,75.18240000000003L153.1776,72.9632L155.0004,70.53280000000001L156.9888,67.88160000000002L159.14999999999998,65.00000000000003L161.4912,61.87840000000003L164.0196,58.50720000000001L166.74240000000003,54.8768L169.66680000000002,50.977600000000024L172.8,46.80000000000001L176.1492,42.33439999999996L179.72160000000002,37.571199999999976L183.52440000000004,32.50079999999997L187.5648,27.11360000000002L191.85,21.400000000000034L196.3872,15.350400000000036L201.18359999999998,8.95519999999999L206.24640000000002,2.2048000000000343L211.5828,-4.9103999999999814L217.20000000000002,-12.400000000000034L223.1052,-20.273599999999988L229.30560000000006,-28.540800000000047L235.80840000000006,-37.21120000000002L242.62080000000003,-46.29440000000005L249.75000000000009,-55.80000000000007L257.2032,-65.73759999999993L264.9876,-76.11679999999996L273.1104,-86.94719999999995L281.5788,-98.23840000000001L290.4,-110"
       id="path6187"
       stroke-width="1"
       stroke="black"
       fill="none" />
    <path
       class="grid-line"
       d="M-1.200000000000001,320L7.6212000000000115,308.2384L16.089600000000004,296.9472L24.212400000000017,286.11679999999996L31.996799999999993,275.7376L39.44999999999999,265.8L46.57920000000001,256.2944L53.3916,247.21120000000002L59.894400000000005,238.5408L66.09479999999999,230.27360000000002L71.99999999999999,222.40000000000003L77.61719999999998,214.91040000000004L82.9536,207.79520000000002L88.01639999999999,201.0448L92.8128,194.6496L97.35000000000001,188.59999999999997L101.63520000000001,182.8864L105.67560000000002,177.49919999999997L109.4784,172.42880000000002L113.0508,167.6656L116.4,163.20000000000002L119.5332,159.0224L122.4576,155.12320000000003L125.18039999999999,151.49280000000002L127.70879999999998,148.1216L130.05,145.00000000000003L132.2112,142.1184L134.1996,139.4672L136.0224,137.03680000000003L137.6868,134.8176L139.2,132.79999999999998L140.5692,130.9744L141.8016,129.33120000000002L142.9044,127.86080000000001L143.88479999999998,126.55360000000002L144.75,125.4L145.5072,124.3904L146.1636,123.51520000000002L146.7264,122.76480000000001L147.2028,122.12960000000001L147.6,121.6L147.92520000000002,121.16640000000001L148.1856,120.8192L148.3884,120.5488L148.54080000000002,120.34560000000002L148.65,120.20000000000002L148.7232,120.10239999999999L148.7676,120.04320000000001L148.7904,120.0128L148.7988,120.0016L148.8,120L148.8012,119.9984L148.80960000000002,119.98720000000003L148.8324,119.95679999999999L148.8768,119.89760000000001L148.95,119.79999999999998L149.0592,119.65439999999998L149.2116,119.4512L149.4144,119.1808L149.6748,118.83360000000002L150,118.4L150.3972,117.87039999999999L150.8736,117.23520000000002L151.4364,116.4848L152.09279999999998,115.6096L152.85000000000002,114.6L153.7152,113.44639999999998L154.6956,112.13919999999999L155.79840000000002,110.6688L157.0308,109.0256L158.4,107.19999999999999L159.9132,105.1824L161.5776,102.96320000000003L163.40040000000002,100.53280000000001L165.3888,97.88159999999999L167.55,95L169.8912,91.87839999999997L172.4196,88.50719999999998L175.1424,84.8768L178.0668,80.9776L181.20000000000002,76.80000000000001L184.5492,72.33439999999999L188.12160000000003,67.57119999999998L191.92440000000002,62.50079999999997L195.9648,57.11360000000002L200.25,51.400000000000034L204.7872,45.350400000000036L209.5836,38.95520000000005L214.6464,32.20479999999998L219.9828,25.08959999999996L225.6,17.599999999999966L231.5052,9.726400000000012L237.7056,1.4592000000000098L244.2084,-7.211200000000019L251.02080000000004,-16.29440000000011L258.15000000000003,-25.800000000000068L265.60319999999996,-35.737599999999986L273.3876,-46.116799999999955L281.5104,-56.94720000000001L289.9788,-68.23840000000001L298.8,-80"
       id="path6189"
       stroke-width="1"
       stroke="black"
       fill="none" />
    <path
       class="grid-line"
       d="M0,350L8.821200000000012,338.2384L17.289600000000004,326.9472L25.41240000000002,316.11679999999996L33.196799999999996,305.7376L40.649999999999984,295.8L47.7792,286.2944L54.5916,277.2112L61.09440000000001,268.5408L67.29479999999998,260.2736L73.19999999999999,252.40000000000003L78.81719999999999,244.9104L84.1536,237.7952L89.2164,231.0448L94.0128,224.64959999999996L98.55000000000001,218.59999999999997L102.83520000000001,212.88639999999998L106.87560000000002,207.49919999999997L110.6784,202.42880000000002L114.2508,197.66559999999998L117.60000000000001,193.2L120.7332,189.0224L123.6576,185.1232L126.3804,181.4928L128.90879999999999,178.1216L131.25,175L133.4112,172.1184L135.3996,169.4672L137.22240000000002,167.0368L138.8868,164.8176L140.39999999999998,162.8L141.76919999999998,160.9744L143.0016,159.3312L144.1044,157.86079999999998L145.0848,156.5536L145.95,155.39999999999998L146.7072,154.3904L147.3636,153.5152L147.9264,152.7648L148.4028,152.12959999999998L148.8,151.6L149.1252,151.1664L149.3856,150.8192L149.5884,150.5488L149.7408,150.3456L149.85,150.2L149.9232,150.10240000000002L149.9676,150.04319999999998L149.9904,150.0128L149.9988,150.0016L150,150L150.0012,149.9984L150.0096,149.9872L150.0324,149.9568L150.07680000000002,149.8976L150.15,149.79999999999998L150.2592,149.65439999999998L150.41160000000002,149.4512L150.61440000000002,149.1808L150.87480000000002,148.8336L151.2,148.4L151.5972,147.8704L152.0736,147.2352L152.6364,146.4848L153.2928,145.6096L154.04999999999998,144.6L154.9152,143.44639999999998L155.8956,142.1392L156.9984,140.6688L158.23080000000002,139.0256L159.60000000000002,137.2L161.11319999999998,135.1824L162.77759999999998,132.9632L164.60039999999998,130.5328L166.5888,127.88159999999999L168.75,125L171.09120000000001,121.8784L173.61960000000002,118.50720000000001L176.3424,114.8768L179.2668,110.9776L182.40000000000003,106.79999999999998L185.7492,102.33439999999996L189.32160000000002,97.57119999999998L193.12440000000004,92.50079999999994L197.1648,87.11359999999999L201.45,81.40000000000003L205.9872,75.35040000000001L210.7836,68.95519999999999L215.84640000000002,62.204800000000006L221.18280000000001,55.08960000000002L226.8,47.599999999999966L232.70520000000002,39.72640000000001L238.90560000000002,31.459199999999953L245.40840000000003,22.78879999999998L252.22080000000005,13.705599999999947L259.35,4.199999999999932L266.80319999999995,-5.737599999999986L274.5876,-16.116799999999955L282.7104,-26.947200000000066L291.1788,-38.238399999999956L300,-49.99999999999994"
       id="path6191"
       stroke-width="1"
       stroke="black"
       fill="none" />
    <path
       class="grid-line"
       d="M1.200000000000001,380L10.021200000000013,368.2384L18.489600000000006,356.9472L26.61240000000002,346.1168L34.39679999999999,335.73760000000004L41.84999999999999,325.8L48.979200000000006,316.2944L55.7916,307.2112L62.29440000000001,298.5408L68.49479999999998,290.27360000000004L74.39999999999998,282.40000000000003L80.01719999999999,274.91040000000004L85.3536,267.7952L90.4164,261.0448L95.2128,254.64960000000002L99.75,248.6L104.03520000000002,242.88640000000004L108.07560000000002,237.4992L111.8784,232.42880000000005L115.4508,227.66560000000004L118.80000000000001,223.20000000000005L121.93319999999999,219.02240000000003L124.8576,215.12320000000005L127.5804,211.49280000000005L130.1088,208.12160000000003L132.45,205L134.6112,202.11840000000004L136.5996,199.46720000000002L138.4224,197.03680000000003L140.08679999999998,194.81760000000003L141.6,192.8L142.9692,190.97440000000003L144.20159999999998,189.33120000000002L145.3044,187.86080000000004L146.2848,186.55360000000002L147.15,185.40000000000003L147.90720000000002,184.39040000000003L148.5636,183.51520000000005L149.12640000000002,182.76480000000004L149.6028,182.12960000000004L150,181.60000000000002L150.3252,181.1664L150.5856,180.81920000000002L150.7884,180.54880000000003L150.9408,180.34560000000002L151.05,180.20000000000002L151.1232,180.10240000000002L151.1676,180.04320000000004L151.19039999999998,180.01280000000003L151.1988,180.0016L151.2,180.00000000000003L151.2012,179.99840000000003L151.20960000000002,179.98720000000003L151.2324,179.95680000000002L151.2768,179.89760000000004L151.35000000000002,179.8L151.45919999999998,179.6544L151.6116,179.45120000000003L151.8144,179.18080000000003L152.0748,178.83360000000005L152.4,178.40000000000003L152.7972,177.87040000000002L153.27360000000002,177.23520000000002L153.8364,176.4848L154.4928,175.6096L155.25000000000003,174.60000000000002L156.11520000000002,173.44640000000004L157.0956,172.13920000000002L158.1984,170.66880000000003L159.4308,169.02560000000003L160.8,167.20000000000002L162.3132,165.18240000000003L163.9776,162.96320000000003L165.80040000000002,160.53280000000004L167.7888,157.88160000000002L169.95,155.00000000000003L172.2912,151.87840000000003L174.8196,148.50720000000004L177.5424,144.8768L180.4668,140.97760000000002L183.60000000000002,136.8L186.94920000000002,132.3344L190.52160000000003,127.5712L194.32440000000003,122.50079999999997L198.3648,117.11360000000002L202.65,111.40000000000006L207.18720000000002,105.35040000000004L211.9836,98.95520000000002L217.0464,92.20480000000003L222.3828,85.08960000000002L228,77.59999999999997L233.9052,69.72640000000001L240.1056,61.45919999999998L246.60840000000002,52.78880000000001L253.42080000000004,43.70559999999995L260.55000000000007,34.19999999999999L268.0032,24.26240000000007L275.7876,13.883200000000045L283.9104,3.0528000000000475L292.3788,-8.238399999999956L301.2,-19.999999999999943"
       id="path6193"
       stroke-width="1"
       stroke="black"
       fill="none" />
    <path
       class="grid-line"
       d="M9.600000000000009,410L18.42120000000002,398.23840000000007L26.889600000000016,386.94720000000007L35.01240000000003,376.1168L42.796800000000005,365.73760000000004L50.25,355.80000000000007L57.37920000000001,346.2944L64.19160000000002,337.2112L70.69440000000003,328.5408L76.8948,320.27360000000004L82.8,312.40000000000003L88.4172,304.91040000000004L93.7536,297.7952L98.8164,291.0448L103.61280000000001,284.6496L108.15,278.59999999999997L112.43520000000001,272.88640000000004L116.47560000000003,267.4992L120.2784,262.4288L123.8508,257.66560000000004L127.20000000000002,253.20000000000002L130.3332,249.0224L133.2576,245.12320000000003L135.9804,241.49280000000002L138.5088,238.12160000000003L140.85000000000002,235L143.0112,232.1184L144.99960000000002,229.46720000000002L146.82240000000002,227.03680000000003L148.4868,224.81760000000003L150,222.8L151.3692,220.97440000000003L152.6016,219.33120000000002L153.70440000000002,217.8608L154.68480000000002,216.55360000000002L155.55,215.40000000000003L156.30720000000002,214.39040000000003L156.9636,213.51520000000002L157.5264,212.76480000000004L158.0028,212.12960000000004L158.4,211.60000000000002L158.7252,211.1664L158.9856,210.81920000000002L159.1884,210.54880000000003L159.3408,210.34560000000002L159.45000000000002,210.20000000000005L159.5232,210.10240000000002L159.5676,210.0432L159.5904,210.01280000000003L159.5988,210.0016L159.60000000000002,210L159.6012,209.99840000000003L159.60960000000003,209.98720000000003L159.63240000000002,209.95680000000002L159.67680000000001,209.8976L159.75000000000003,209.8L159.8592,209.6544L160.01160000000002,209.45120000000003L160.2144,209.18080000000003L160.47480000000002,208.83360000000002L160.8,208.40000000000003L161.1972,207.87040000000002L161.67360000000002,207.23520000000002L162.2364,206.4848L162.8928,205.6096L163.65000000000003,204.60000000000002L164.51520000000002,203.4464L165.4956,202.13920000000002L166.59840000000003,200.66880000000003L167.8308,199.0256L169.20000000000002,197.2L170.7132,195.18240000000003L172.3776,192.96320000000003L174.2004,190.5328L176.18880000000001,187.88160000000002L178.35000000000002,185.00000000000003L180.6912,181.8784L183.2196,178.5072L185.94240000000002,174.8768L188.8668,170.97760000000002L192.00000000000003,166.8L195.34920000000002,162.3344L198.92160000000004,157.5712L202.72440000000003,152.50079999999997L206.7648,147.11360000000002L211.05,141.40000000000003L215.58720000000002,135.35040000000004L220.3836,128.95520000000005L225.4464,122.2048L230.7828,115.08959999999999L236.4,107.6L242.3052,99.72640000000001L248.50560000000002,91.45920000000001L255.00840000000002,82.78879999999998L261.8208000000001,73.70559999999995L268.95000000000005,64.19999999999996L276.40319999999997,54.26240000000004L284.18760000000003,43.883200000000045L292.3104,33.05279999999999L300.7788,21.761600000000044L309.6,10.000000000000057"
       id="path6195"
       stroke-width="1"
       stroke="black"
       fill="none" />
    <path
       class="grid-line"
       d="M32.40000000000001,440L41.221200000000024,428.2384L49.68960000000002,416.9472L57.81240000000003,406.1168L65.5968,395.73760000000004L73.05,385.8L80.17920000000002,376.2944L86.99160000000002,367.2112L93.49440000000003,358.5408L99.6948,350.27360000000004L105.6,342.4000000000001L111.21720000000002,334.9104L116.5536,327.7952L121.61640000000003,321.0448L126.4128,314.6496L130.95000000000005,308.59999999999997L135.23520000000002,302.88640000000004L139.27560000000003,297.4992L143.07840000000002,292.4288L146.6508,287.6656L150,283.20000000000005L153.13320000000002,279.0224L156.0576,275.1232L158.78040000000001,271.4928L161.30880000000002,268.1216L163.65000000000003,265L165.8112,262.1184L167.79960000000003,259.4672L169.6224,257.0368L171.2868,254.81760000000003L172.8,252.8L174.16920000000002,250.9744L175.40160000000003,249.33120000000002L176.50440000000003,247.8608L177.4848,246.55360000000002L178.35000000000002,245.4L179.1072,244.39040000000003L179.76360000000003,243.51520000000002L180.3264,242.7648L180.8028,242.1296L181.20000000000002,241.60000000000002L181.5252,241.1664L181.78560000000002,240.81920000000002L181.9884,240.54880000000003L182.1408,240.34560000000002L182.25,240.20000000000002L182.3232,240.10240000000002L182.36760000000004,240.0432L182.39040000000003,240.01280000000003L182.3988,240.00160000000002L182.40000000000003,240L182.4012,239.9984L182.4096,239.9872L182.43240000000003,239.95680000000002L182.4768,239.8976L182.55,239.8L182.65920000000003,239.6544L182.8116,239.4512L183.01440000000002,239.18080000000003L183.2748,238.83360000000002L183.60000000000002,238.4L183.9972,237.87040000000002L184.4736,237.23520000000002L185.03640000000001,236.4848L185.69280000000003,235.6096L186.45000000000002,234.60000000000002L187.3152,233.4464L188.29560000000004,232.13920000000002L189.39840000000004,230.6688L190.63080000000002,229.0256L192.00000000000003,227.2L193.51319999999998,225.18240000000003L195.1776,222.96320000000003L197.0004,220.5328L198.98880000000003,217.8816L201.15000000000003,215L203.4912,211.8784L206.01960000000003,208.5072L208.74240000000003,204.8768L211.66680000000002,200.9776L214.8,196.8L218.14920000000004,192.3344L221.72160000000005,187.57119999999998L225.5244,182.50079999999997L229.5648,177.11360000000002L233.85,171.40000000000003L238.3872,165.35040000000004L243.1836,158.95520000000002L248.2464,152.2048L253.58280000000002,145.08960000000002L259.20000000000005,137.59999999999997L265.1052,129.72639999999998L271.3056,121.45919999999995L277.8084,112.78880000000001L284.6208000000001,103.70559999999995L291.75000000000006,94.19999999999996L299.2032,84.26240000000004L306.98760000000004,73.88320000000004L315.11039999999997,63.05280000000002L323.57880000000006,51.761600000000016L332.40000000000003,40"
       id="path6197"
       stroke-width="1"
       stroke="black"
       fill="none" />
    <path
       class="grid-line"
       d="M76.80000000000001,470L85.62120000000003,458.2384L94.08960000000002,446.9472L102.21240000000003,436.1168L109.99680000000001,425.7376L117.45,415.80000000000007L124.57920000000003,406.2944L131.3916,397.21119999999996L137.89440000000005,388.5408L144.0948,380.2736L150,372.40000000000003L155.61720000000003,364.91040000000004L160.95360000000002,357.7952L166.01640000000003,351.0448L170.81280000000004,344.64959999999996L175.35000000000005,338.59999999999997L179.63520000000003,332.8864L183.67560000000003,327.4992L187.47840000000002,322.4288L191.0508,317.6656L194.40000000000003,313.2L197.53320000000002,309.0224L200.4576,305.1232L203.1804,301.49280000000005L205.70880000000002,298.1216L208.05,295L210.2112,292.1184L212.19960000000003,289.4672L214.0224,287.03679999999997L215.6868,284.8176L217.20000000000002,282.8L218.5692,280.9744L219.80160000000004,279.3312L220.9044,277.8608L221.8848,276.5536L222.75000000000003,275.4L223.5072,274.3904L224.16360000000003,273.5152L224.7264,272.76480000000004L225.20280000000002,272.1296L225.6,271.6L225.92520000000002,271.1664L226.18560000000002,270.8192L226.38840000000002,270.5488L226.54080000000002,270.3456L226.65,270.2L226.72320000000002,270.1024L226.76760000000002,270.0432L226.79040000000003,270.0128L226.79880000000003,270.0016L226.8,270L226.80120000000002,269.9984L226.80960000000002,269.9872L226.8324,269.9568L226.8768,269.8976L226.95000000000002,269.8L227.0592,269.6544L227.2116,269.4512L227.41440000000003,269.18080000000003L227.6748,268.8336L228,268.4L228.39720000000003,267.8704L228.8736,267.2352L229.43640000000002,266.4848L230.09280000000004,265.6096L230.85000000000002,264.6L231.7152,263.44640000000004L232.6956,262.1392L233.79840000000002,260.6688L235.0308,259.0256L236.4,257.2L237.91320000000002,255.1824L239.5776,252.96320000000003L241.40040000000002,250.5328L243.3888,247.8816L245.55,245L247.8912,241.8784L250.4196,238.5072L253.14240000000004,234.8768L256.0668,230.9776L259.20000000000005,226.8L262.54920000000004,222.33439999999996L266.1216,217.57119999999998L269.92440000000005,212.50079999999997L273.9648,207.11360000000002L278.25,201.40000000000003L282.7872,195.35040000000004L287.5836,188.95520000000002L292.6464,182.2048L297.9828,175.0896L303.6,167.59999999999997L309.5052,159.72639999999998L315.70560000000006,151.45919999999998L322.20840000000004,142.78879999999995L329.02080000000007,133.70559999999995L336.1500000000001,124.19999999999993L343.60319999999996,114.26240000000004L351.3876,103.88320000000004L359.5104,93.05279999999999L367.9788,81.76160000000002L376.8,70.00000000000003"
       id="path6199"
       stroke-width="1"
       stroke="black"
       fill="none" />
    <path
       class="grid-line"
       d="M150,499.99999999999994L158.8212,488.23839999999996L167.2896,476.94720000000007L175.4124,466.1168L183.1968,455.73759999999993L190.64999999999998,445.79999999999995L197.77920000000003,436.2944L204.5916,427.2112L211.0944,418.5408L217.29479999999998,410.2736L223.2,402.40000000000003L228.81719999999999,394.9104L234.15359999999998,387.79519999999997L239.2164,381.0448L244.0128,374.64959999999996L248.55,368.59999999999997L252.8352,362.8864L256.8756,357.4992L260.67839999999995,352.4288L264.25079999999997,347.6656L267.6,343.2L270.7332,339.0224L273.6576,335.1232L276.3804,331.4928L278.9088,328.1216L281.25,325L283.4112,322.1184L285.3996,319.4672L287.2224,317.0368L288.8868,314.81759999999997L290.4,312.8L291.7692,310.9744L293.0016,309.3312L294.1044,307.86080000000004L295.08480000000003,306.55359999999996L295.95,305.4L296.7072,304.3904L297.3636,303.5152L297.9264,302.7648L298.4028,302.1296L298.8,301.59999999999997L299.1252,301.1664L299.3856,300.8192L299.58840000000004,300.5488L299.74080000000004,300.3456L299.85,300.2L299.9232,300.1024L299.9676,300.0432L299.99039999999997,300.01279999999997L299.9988,300.0016L300,300L300.00120000000004,299.9984L300.00960000000003,299.9872L300.0324,299.9568L300.0768,299.8976L300.15000000000003,299.8L300.25919999999996,299.6544L300.41159999999996,299.4512L300.6144,299.1808L300.8748,298.8336L301.2,298.4L301.5972,297.8704L302.0736,297.2352L302.6364,296.4848L303.29279999999994,295.6096L304.05,294.6L304.91519999999997,293.4464L305.8956,292.13919999999996L306.9984,290.6688L308.2308,289.0256L309.6,287.2L311.11319999999995,285.18240000000003L312.7776,282.96320000000003L314.6004,280.5328L316.5888,277.8816L318.75,275L321.0912000000001,271.8784L323.6196,268.5072L326.34239999999994,264.8768L329.2668,260.9776L332.40000000000003,256.8L335.74920000000003,252.33439999999996L339.32160000000005,247.57119999999998L343.1244,242.50079999999994L347.1648,237.11360000000002L351.45,231.40000000000003L355.98720000000003,225.35040000000004L360.7836,218.9552L365.8464,212.2048L371.1828,205.0896L376.8,197.59999999999997L382.7052,189.72639999999998L388.90560000000005,181.45919999999995L395.4084,172.78879999999998L402.22080000000005,163.70559999999995L409.35,154.19999999999993L416.80319999999995,144.26240000000004L424.5876,133.88320000000002L432.71040000000005,123.05279999999999L441.1788,111.76160000000002L450,100"
       id="path6201"
       stroke-width="1"
       stroke="black"
       fill="none" />
    <circle
       r="3"
       cx="310.8"
       cy="109.19999999999996"
       id="circle6203" />
  </g>
</svg>
