<?xml version="1.0" encoding="UTF-8" standalone="no"?>
<svg xmlns="http://www.w3.org/2000/svg" xmlns:xlink="http://www.w3.org/1999/xlink"  version="1.1">
  <path class="grid-line" stroke="black" stroke-width="1" fill="none" d="M0,300L0,297L0,294L0,291L0,288L0,285L0,282L0,279L0,276L0,273L0,270L0,267L0,264L0,261L0,258L0,255L0,252L0,249L0,246L0,243L0,240L0,237L0,234L0,231L0,228L0,225L0,222L0,219L0,216L0,213L0,210L0,207L0,204L0,201L0,198L0,195L0,192L0,189L0,186L0,183L0,180L0,177L0,174L0,171L0,168L0,165L0,162L0,159L0,156L0,153L0,150L0,147L0,144L0,141L0,138L0,135L0,131.99999999999997L0,128.99999999999997L0,126L0,123L0,120L0,117L0,114L0,111L0,108L0,105L0,102L0,99L0,95.99999999999997L0,92.99999999999997L0,89.99999999999997L0,87L0,84L0,81L0,78L0,75L0,72L0,69L0,66L0,63L0,60L0,56.99999999999997L0,53.99999999999997L0,50.99999999999997L0,48L0,45L0,42L0,39L0,36L0,33L0,30L0,27L0,24L0,21L0,18L0,15L0,12L0,9L0,6L0,3L0,0"></path>
  <path class="grid-line" stroke="black" stroke-width="1" fill="none" d="M29.999999999999993,300L29.999999999999993,297L29.999999999999993,294L29.999999999999993,291L29.999999999999993,288L29.999999999999993,285L29.999999999999993,282L29.999999999999993,279L29.999999999999993,276L29.999999999999993,273L29.999999999999993,270L29.999999999999993,267L29.999999999999993,264L29.999999999999993,261L29.999999999999993,258L29.999999999999993,255L29.999999999999993,252L29.999999999999993,249L29.999999999999993,246L29.999999999999993,243L29.999999999999993,240L29.999999999999993,237L29.999999999999993,234L29.999999999999993,231L29.999999999999993,228L29.999999999999993,225L29.999999999999993,222L29.999999999999993,219L29.999999999999993,216L29.999999999999993,213L29.999999999999993,210L29.999999999999993,207L29.999999999999993,204L29.999999999999993,201L29.999999999999993,198L29.999999999999993,195L29.999999999999993,192L29.999999999999993,189L29.999999999999993,186L29.999999999999993,183L29.999999999999993,180L29.999999999999993,177L29.999999999999993,174L29.999999999999993,171L29.999999999999993,168L29.999999999999993,165L29.999999999999993,162L29.999999999999993,159L29.999999999999993,156L29.999999999999993,153L29.999999999999993,150L29.999999999999993,147L29.999999999999993,144L29.999999999999993,141L29.999999999999993,138L29.999999999999993,135L29.999999999999993,131.99999999999997L29.999999999999993,128.99999999999997L29.999999999999993,126L29.999999999999993,123L29.999999999999993,120L29.999999999999993,117L29.999999999999993,114L29.999999999999993,111L29.999999999999993,108L29.999999999999993,105L29.999999999999993,102L29.999999999999993,99L29.999999999999993,95.99999999999997L29.999999999999993,92.99999999999997L29.999999999999993,89.99999999999997L29.999999999999993,87L29.999999999999993,84L29.999999999999993,81L29.999999999999993,78L29.999999999999993,75L29.999999999999993,72L29.999999999999993,69L29.999999999999993,66L29.999999999999993,63L29.999999999999993,60L29.999999999999993,56.99999999999997L29.999999999999993,53.99999999999997L29.999999999999993,50.99999999999997L29.999999999999993,48L29.999999999999993,45L29.999999999999993,42L29.999999999999993,39L29.999999999999993,36L29.999999999999993,33L29.999999999999993,30L29.999999999999993,27L29.999999999999993,24L29.999999999999993,21L29.999999999999993,18L29.999999999999993,15L29.999999999999993,12L29.999999999999993,9L29.999999999999993,6L29.999999999999993,3L29.999999999999993,0"></path>
  <path class="grid-line" stroke="black" stroke-width="1" fill="none" d="M60,300L60,297L60,294L60,291L60,288L60,285L60,282L60,279L60,276L60,273L60,270L60,267L60,264L60,261L60,258L60,255L60,252L60,249L60,246L60,243L60,240L60,237L60,234L60,231L60,228L60,225L60,222L60,219L60,216L60,213L60,210L60,207L60,204L60,201L60,198L60,195L60,192L60,189L60,186L60,183L60,180L60,177L60,174L60,171L60,168L60,165L60,162L60,159L60,156L60,153L60,150L60,147L60,144L60,141L60,138L60,135L60,131.99999999999997L60,128.99999999999997L60,126L60,123L60,120L60,117L60,114L60,111L60,108L60,105L60,102L60,99L60,95.99999999999997L60,92.99999999999997L60,89.99999999999997L60,87L60,84L60,81L60,78L60,75L60,72L60,69L60,66L60,63L60,60L60,56.99999999999997L60,53.99999999999997L60,50.99999999999997L60,48L60,45L60,42L60,39L60,36L60,33L60,30L60,27L60,24L60,21L60,18L60,15L60,12L60,9L60,6L60,3L60,0"></path>
  <path class="grid-line" stroke="black" stroke-width="1" fill="none" d="M90.00000000000001,300L90.00000000000001,297L90.00000000000001,294L90.00000000000001,291L90.00000000000001,288L90.00000000000001,285L90.00000000000001,282L90.00000000000001,279L90.00000000000001,276L90.00000000000001,273L90.00000000000001,270L90.00000000000001,267L90.00000000000001,264L90.00000000000001,261L90.00000000000001,258L90.00000000000001,255L90.00000000000001,252L90.00000000000001,249L90.00000000000001,246L90.00000000000001,243L90.00000000000001,240L90.00000000000001,237L90.00000000000001,234L90.00000000000001,231L90.00000000000001,228L90.00000000000001,225L90.00000000000001,222L90.00000000000001,219L90.00000000000001,216L90.00000000000001,213L90.00000000000001,210L90.00000000000001,207L90.00000000000001,204L90.00000000000001,201L90.00000000000001,198L90.00000000000001,195L90.00000000000001,192L90.00000000000001,189L90.00000000000001,186L90.00000000000001,183L90.00000000000001,180L90.00000000000001,177L90.00000000000001,174L90.00000000000001,171L90.00000000000001,168L90.00000000000001,165L90.00000000000001,162L90.00000000000001,159L90.00000000000001,156L90.00000000000001,153L90.00000000000001,150L90.00000000000001,147L90.00000000000001,144L90.00000000000001,141L90.00000000000001,138L90.00000000000001,135L90.00000000000001,131.99999999999997L90.00000000000001,128.99999999999997L90.00000000000001,126L90.00000000000001,123L90.00000000000001,120L90.00000000000001,117L90.00000000000001,114L90.00000000000001,111L90.00000000000001,108L90.00000000000001,105L90.00000000000001,102L90.00000000000001,99L90.00000000000001,95.99999999999997L90.00000000000001,92.99999999999997L90.00000000000001,89.99999999999997L90.00000000000001,87L90.00000000000001,84L90.00000000000001,81L90.00000000000001,78L90.00000000000001,75L90.00000000000001,72L90.00000000000001,69L90.00000000000001,66L90.00000000000001,63L90.00000000000001,60L90.00000000000001,56.99999999999997L90.00000000000001,53.99999999999997L90.00000000000001,50.99999999999997L90.00000000000001,48L90.00000000000001,45L90.00000000000001,42L90.00000000000001,39L90.00000000000001,36L90.00000000000001,33L90.00000000000001,30L90.00000000000001,27L90.00000000000001,24L90.00000000000001,21L90.00000000000001,18L90.00000000000001,15L90.00000000000001,12L90.00000000000001,9L90.00000000000001,6L90.00000000000001,3L90.00000000000001,0"></path>
  <path class="grid-line" stroke="black" stroke-width="1" fill="none" d="M120,300L120,297L120,294L120,291L120,288L120,285L120,282L120,279L120,276L120,273L120,270L120,267L120,264L120,261L120,258L120,255L120,252L120,249L120,246L120,243L120,240L120,237L120,234L120,231L120,228L120,225L120,222L120,219L120,216L120,213L120,210L120,207L120,204L120,201L120,198L120,195L120,192L120,189L120,186L120,183L120,180L120,177L120,174L120,171L120,168L120,165L120,162L120,159L120,156L120,153L120,150L120,147L120,144L120,141L120,138L120,135L120,131.99999999999997L120,128.99999999999997L120,126L120,123L120,120L120,117L120,114L120,111L120,108L120,105L120,102L120,99L120,95.99999999999997L120,92.99999999999997L120,89.99999999999997L120,87L120,84L120,81L120,78L120,75L120,72L120,69L120,66L120,63L120,60L120,56.99999999999997L120,53.99999999999997L120,50.99999999999997L120,48L120,45L120,42L120,39L120,36L120,33L120,30L120,27L120,24L120,21L120,18L120,15L120,12L120,9L120,6L120,3L120,0"></path>
  <path class="grid-line" stroke="black" stroke-width="1" fill="none" d="M150,300L150,297L150,294L150,291L150,288L150,285L150,282L150,279L150,276L150,273L150,270L150,267L150,264L150,261L150,258L150,255L150,252L150,249L150,246L150,243L150,240L150,237L150,234L150,231L150,228L150,225L150,222L150,219L150,216L150,213L150,210L150,207L150,204L150,201L150,198L150,195L150,192L150,189L150,186L150,183L150,180L150,177L150,174L150,171L150,168L150,165L150,162L150,159L150,156L150,153L150,150L150,147L150,144L150,141L150,138L150,135L150,131.99999999999997L150,128.99999999999997L150,126L150,123L150,120L150,117L150,114L150,111L150,108L150,105L150,102L150,99L150,95.99999999999997L150,92.99999999999997L150,89.99999999999997L150,87L150,84L150,81L150,78L150,75L150,72L150,69L150,66L150,63L150,60L150,56.99999999999997L150,53.99999999999997L150,50.99999999999997L150,48L150,45L150,42L150,39L150,36L150,33L150,30L150,27L150,24L150,21L150,18L150,15L150,12L150,9L150,6L150,3L150,0"></path>
  <path class="grid-line" stroke="black" stroke-width="1" fill="none" d="M180.00000000000003,300L180.00000000000003,297L180.00000000000003,294L180.00000000000003,291L180.00000000000003,288L180.00000000000003,285L180.00000000000003,282L180.00000000000003,279L180.00000000000003,276L180.00000000000003,273L180.00000000000003,270L180.00000000000003,267L180.00000000000003,264L180.00000000000003,261L180.00000000000003,258L180.00000000000003,255L180.00000000000003,252L180.00000000000003,249L180.00000000000003,246L180.00000000000003,243L180.00000000000003,240L180.00000000000003,237L180.00000000000003,234L180.00000000000003,231L180.00000000000003,228L180.00000000000003,225L180.00000000000003,222L180.00000000000003,219L180.00000000000003,216L180.00000000000003,213L180.00000000000003,210L180.00000000000003,207L180.00000000000003,204L180.00000000000003,201L180.00000000000003,198L180.00000000000003,195L180.00000000000003,192L180.00000000000003,189L180.00000000000003,186L180.00000000000003,183L180.00000000000003,180L180.00000000000003,177L180.00000000000003,174L180.00000000000003,171L180.00000000000003,168L180.00000000000003,165L180.00000000000003,162L180.00000000000003,159L180.00000000000003,156L180.00000000000003,153L180.00000000000003,150L180.00000000000003,147L180.00000000000003,144L180.00000000000003,141L180.00000000000003,138L180.00000000000003,135L180.00000000000003,131.99999999999997L180.00000000000003,128.99999999999997L180.00000000000003,126L180.00000000000003,123L180.00000000000003,120L180.00000000000003,117L180.00000000000003,114L180.00000000000003,111L180.00000000000003,108L180.00000000000003,105L180.00000000000003,102L180.00000000000003,99L180.00000000000003,95.99999999999997L180.00000000000003,92.99999999999997L180.00000000000003,89.99999999999997L180.00000000000003,87L180.00000000000003,84L180.00000000000003,81L180.00000000000003,78L180.00000000000003,75L180.00000000000003,72L180.00000000000003,69L180.00000000000003,66L180.00000000000003,63L180.00000000000003,60L180.00000000000003,56.99999999999997L180.00000000000003,53.99999999999997L180.00000000000003,50.99999999999997L180.00000000000003,48L180.00000000000003,45L180.00000000000003,42L180.00000000000003,39L180.00000000000003,36L180.00000000000003,33L180.00000000000003,30L180.00000000000003,27L180.00000000000003,24L180.00000000000003,21L180.00000000000003,18L180.00000000000003,15L180.00000000000003,12L180.00000000000003,9L180.00000000000003,6L180.00000000000003,3L180.00000000000003,0"></path>
  <path class="grid-line" stroke="black" stroke-width="1" fill="none" d="M210.00000000000003,300L210.00000000000003,297L210.00000000000003,294L210.00000000000003,291L210.00000000000003,288L210.00000000000003,285L210.00000000000003,282L210.00000000000003,279L210.00000000000003,276L210.00000000000003,273L210.00000000000003,270L210.00000000000003,267L210.00000000000003,264L210.00000000000003,261L210.00000000000003,258L210.00000000000003,255L210.00000000000003,252L210.00000000000003,249L210.00000000000003,246L210.00000000000003,243L210.00000000000003,240L210.00000000000003,237L210.00000000000003,234L210.00000000000003,231L210.00000000000003,228L210.00000000000003,225L210.00000000000003,222L210.00000000000003,219L210.00000000000003,216L210.00000000000003,213L210.00000000000003,210L210.00000000000003,207L210.00000000000003,204L210.00000000000003,201L210.00000000000003,198L210.00000000000003,195L210.00000000000003,192L210.00000000000003,189L210.00000000000003,186L210.00000000000003,183L210.00000000000003,180L210.00000000000003,177L210.00000000000003,174L210.00000000000003,171L210.00000000000003,168L210.00000000000003,165L210.00000000000003,162L210.00000000000003,159L210.00000000000003,156L210.00000000000003,153L210.00000000000003,150L210.00000000000003,147L210.00000000000003,144L210.00000000000003,141L210.00000000000003,138L210.00000000000003,135L210.00000000000003,131.99999999999997L210.00000000000003,128.99999999999997L210.00000000000003,126L210.00000000000003,123L210.00000000000003,120L210.00000000000003,117L210.00000000000003,114L210.00000000000003,111L210.00000000000003,108L210.00000000000003,105L210.00000000000003,102L210.00000000000003,99L210.00000000000003,95.99999999999997L210.00000000000003,92.99999999999997L210.00000000000003,89.99999999999997L210.00000000000003,87L210.00000000000003,84L210.00000000000003,81L210.00000000000003,78L210.00000000000003,75L210.00000000000003,72L210.00000000000003,69L210.00000000000003,66L210.00000000000003,63L210.00000000000003,60L210.00000000000003,56.99999999999997L210.00000000000003,53.99999999999997L210.00000000000003,50.99999999999997L210.00000000000003,48L210.00000000000003,45L210.00000000000003,42L210.00000000000003,39L210.00000000000003,36L210.00000000000003,33L210.00000000000003,30L210.00000000000003,27L210.00000000000003,24L210.00000000000003,21L210.00000000000003,18L210.00000000000003,15L210.00000000000003,12L210.00000000000003,9L210.00000000000003,6L210.00000000000003,3L210.00000000000003,0"></path>
  <path class="grid-line" stroke="black" stroke-width="1" fill="none" d="M240,300L240,297L240,294L240,291L240,288L240,285L240,282L240,279L240,276L240,273L240,270L240,267L240,264L240,261L240,258L240,255L240,252L240,249L240,246L240,243L240,240L240,237L240,234L240,231L240,228L240,225L240,222L240,219L240,216L240,213L240,210L240,207L240,204L240,201L240,198L240,195L240,192L240,189L240,186L240,183L240,180L240,177L240,174L240,171L240,168L240,165L240,162L240,159L240,156L240,153L240,150L240,147L240,144L240,141L240,138L240,135L240,131.99999999999997L240,128.99999999999997L240,126L240,123L240,120L240,117L240,114L240,111L240,108L240,105L240,102L240,99L240,95.99999999999997L240,92.99999999999997L240,89.99999999999997L240,87L240,84L240,81L240,78L240,75L240,72L240,69L240,66L240,63L240,60L240,56.99999999999997L240,53.99999999999997L240,50.99999999999997L240,48L240,45L240,42L240,39L240,36L240,33L240,30L240,27L240,24L240,21L240,18L240,15L240,12L240,9L240,6L240,3L240,0"></path>
  <path class="grid-line" stroke="black" stroke-width="1" fill="none" d="M270,300L270,297L270,294L270,291L270,288L270,285L270,282L270,279L270,276L270,273L270,270L270,267L270,264L270,261L270,258L270,255L270,252L270,249L270,246L270,243L270,240L270,237L270,234L270,231L270,228L270,225L270,222L270,219L270,216L270,213L270,210L270,207L270,204L270,201L270,198L270,195L270,192L270,189L270,186L270,183L270,180L270,177L270,174L270,171L270,168L270,165L270,162L270,159L270,156L270,153L270,150L270,147L270,144L270,141L270,138L270,135L270,131.99999999999997L270,128.99999999999997L270,126L270,123L270,120L270,117L270,114L270,111L270,108L270,105L270,102L270,99L270,95.99999999999997L270,92.99999999999997L270,89.99999999999997L270,87L270,84L270,81L270,78L270,75L270,72L270,69L270,66L270,63L270,60L270,56.99999999999997L270,53.99999999999997L270,50.99999999999997L270,48L270,45L270,42L270,39L270,36L270,33L270,30L270,27L270,24L270,21L270,18L270,15L270,12L270,9L270,6L270,3L270,0"></path>
  <path class="grid-line" stroke="black" stroke-width="1" fill="none" d="M300,300L300,297L300,294L300,291L300,288L300,285L300,282L300,279L300,276L300,273L300,270L300,267L300,264L300,261L300,258L300,255L300,252L300,249L300,246L300,243L300,240L300,237L300,234L300,231L300,228L300,225L300,222L300,219L300,216L300,213L300,210L300,207L300,204L300,201L300,198L300,195L300,192L300,189L300,186L300,183L300,180L300,177L300,174L300,171L300,168L300,165L300,162L300,159L300,156L300,153L300,150L300,147L300,144L300,141L300,138L300,135L300,131.99999999999997L300,128.99999999999997L300,126L300,123L300,120L300,117L300,114L300,111L300,108L300,105L300,102L300,99L300,95.99999999999997L300,92.99999999999997L300,89.99999999999997L300,87L300,84L300,81L300,78L300,75L300,72L300,69L300,66L300,63L300,60L300,56.99999999999997L300,53.99999999999997L300,50.99999999999997L300,48L300,45L300,42L300,39L300,36L300,33L300,30L300,27L300,24L300,21L300,18L300,15L300,12L300,9L300,6L300,3L300,0"></path>
  <path class="grid-line" stroke="black" stroke-width="1" fill="none" d="M0,300L3.0000000000000027,300L6.000000000000005,300L9.000000000000007,300L11.999999999999995,300L14.999999999999996,300L18,300L21.000000000000004,300L24.000000000000004,300L26.99999999999999,300L29.999999999999993,300L32.99999999999999,300L36,300L39,300L42.00000000000001,300L45.00000000000001,300L48.00000000000001,300L51.000000000000014,300L54,300L57,300L60,300L62.999999999999986,300L65.99999999999999,300L69,300L72,300L75,300L78,300L81,300L84.00000000000001,300L87,300L90,300L93,300L96,300L99,300L102.00000000000001,300L105.00000000000001,300L108,300L111,300L114,300L117,300L120,300L123.00000000000001,300L126,300L129,300L132,300L135,300L138,300L141,300L144,300L147,300L150,300L153,300L156,300L159,300L162,300L165,300L168.00000000000003,300L171.00000000000003,300L174,300L177,300L180,300L183,300L186,300L189,300L192,300L195,300L198,300L201,300L204.00000000000003,300L207.00000000000003,300L210.00000000000003,300L213,300L216,300L219,300L222,300L225,300L228,300L231,300L234,300L237,300L240,300L243.00000000000003,300L246.00000000000003,300L249.00000000000003,300L252,300L255,300L258,300L261,300L264,300L267,300L270,300L273,300L276,300L279,300L282,300L285,300L288,300L291,300L294,300L297,300L300,300"></path>
  <path class="grid-line" stroke="black" stroke-width="1" fill="none" d="M0,270L3.0000000000000027,270L6.000000000000005,270L9.000000000000007,270L11.999999999999995,270L14.999999999999996,270L18,270L21.000000000000004,270L24.000000000000004,270L26.99999999999999,270L29.999999999999993,270L32.99999999999999,270L36,270L39,270L42.00000000000001,270L45.00000000000001,270L48.00000000000001,270L51.000000000000014,270L54,270L57,270L60,270L62.999999999999986,270L65.99999999999999,270L69,270L72,270L75,270L78,270L81,270L84.00000000000001,270L87,270L90,270L93,270L96,270L99,270L102.00000000000001,270L105.00000000000001,270L108,270L111,270L114,270L117,270L120,270L123.00000000000001,270L126,270L129,270L132,270L135,270L138,270L141,270L144,270L147,270L150,270L153,270L156,270L159,270L162,270L165,270L168.00000000000003,270L171.00000000000003,270L174,270L177,270L180,270L183,270L186,270L189,270L192,270L195,270L198,270L201,270L204.00000000000003,270L207.00000000000003,270L210.00000000000003,270L213,270L216,270L219,270L222,270L225,270L228,270L231,270L234,270L237,270L240,270L243.00000000000003,270L246.00000000000003,270L249.00000000000003,270L252,270L255,270L258,270L261,270L264,270L267,270L270,270L273,270L276,270L279,270L282,270L285,270L288,270L291,270L294,270L297,270L300,270"></path>
  <path class="grid-line" stroke="black" stroke-width="1" fill="none" d="M0,240L3.0000000000000027,240L6.000000000000005,240L9.000000000000007,240L11.999999999999995,240L14.999999999999996,240L18,240L21.000000000000004,240L24.000000000000004,240L26.99999999999999,240L29.999999999999993,240L32.99999999999999,240L36,240L39,240L42.00000000000001,240L45.00000000000001,240L48.00000000000001,240L51.000000000000014,240L54,240L57,240L60,240L62.999999999999986,240L65.99999999999999,240L69,240L72,240L75,240L78,240L81,240L84.00000000000001,240L87,240L90,240L93,240L96,240L99,240L102.00000000000001,240L105.00000000000001,240L108,240L111,240L114,240L117,240L120,240L123.00000000000001,240L126,240L129,240L132,240L135,240L138,240L141,240L144,240L147,240L150,240L153,240L156,240L159,240L162,240L165,240L168.00000000000003,240L171.00000000000003,240L174,240L177,240L180,240L183,240L186,240L189,240L192,240L195,240L198,240L201,240L204.00000000000003,240L207.00000000000003,240L210.00000000000003,240L213,240L216,240L219,240L222,240L225,240L228,240L231,240L234,240L237,240L240,240L243.00000000000003,240L246.00000000000003,240L249.00000000000003,240L252,240L255,240L258,240L261,240L264,240L267,240L270,240L273,240L276,240L279,240L282,240L285,240L288,240L291,240L294,240L297,240L300,240"></path>
  <path class="grid-line" stroke="black" stroke-width="1" fill="none" d="M0,210L3.0000000000000027,210L6.000000000000005,210L9.000000000000007,210L11.999999999999995,210L14.999999999999996,210L18,210L21.000000000000004,210L24.000000000000004,210L26.99999999999999,210L29.999999999999993,210L32.99999999999999,210L36,210L39,210L42.00000000000001,210L45.00000000000001,210L48.00000000000001,210L51.000000000000014,210L54,210L57,210L60,210L62.999999999999986,210L65.99999999999999,210L69,210L72,210L75,210L78,210L81,210L84.00000000000001,210L87,210L90,210L93,210L96,210L99,210L102.00000000000001,210L105.00000000000001,210L108,210L111,210L114,210L117,210L120,210L123.00000000000001,210L126,210L129,210L132,210L135,210L138,210L141,210L144,210L147,210L150,210L153,210L156,210L159,210L162,210L165,210L168.00000000000003,210L171.00000000000003,210L174,210L177,210L180,210L183,210L186,210L189,210L192,210L195,210L198,210L201,210L204.00000000000003,210L207.00000000000003,210L210.00000000000003,210L213,210L216,210L219,210L222,210L225,210L228,210L231,210L234,210L237,210L240,210L243.00000000000003,210L246.00000000000003,210L249.00000000000003,210L252,210L255,210L258,210L261,210L264,210L267,210L270,210L273,210L276,210L279,210L282,210L285,210L288,210L291,210L294,210L297,210L300,210"></path>
  <path class="grid-line" stroke="black" stroke-width="1" fill="none" d="M0,180L3.0000000000000027,180L6.000000000000005,180L9.000000000000007,180L11.999999999999995,180L14.999999999999996,180L18,180L21.000000000000004,180L24.000000000000004,180L26.99999999999999,180L29.999999999999993,180L32.99999999999999,180L36,180L39,180L42.00000000000001,180L45.00000000000001,180L48.00000000000001,180L51.000000000000014,180L54,180L57,180L60,180L62.999999999999986,180L65.99999999999999,180L69,180L72,180L75,180L78,180L81,180L84.00000000000001,180L87,180L90,180L93,180L96,180L99,180L102.00000000000001,180L105.00000000000001,180L108,180L111,180L114,180L117,180L120,180L123.00000000000001,180L126,180L129,180L132,180L135,180L138,180L141,180L144,180L147,180L150,180L153,180L156,180L159,180L162,180L165,180L168.00000000000003,180L171.00000000000003,180L174,180L177,180L180,180L183,180L186,180L189,180L192,180L195,180L198,180L201,180L204.00000000000003,180L207.00000000000003,180L210.00000000000003,180L213,180L216,180L219,180L222,180L225,180L228,180L231,180L234,180L237,180L240,180L243.00000000000003,180L246.00000000000003,180L249.00000000000003,180L252,180L255,180L258,180L261,180L264,180L267,180L270,180L273,180L276,180L279,180L282,180L285,180L288,180L291,180L294,180L297,180L300,180"></path>
  <path class="grid-line" stroke="black" stroke-width="1" fill="none" d="M0,150L3.0000000000000027,150L6.000000000000005,150L9.000000000000007,150L11.999999999999995,150L14.999999999999996,150L18,150L21.000000000000004,150L24.000000000000004,150L26.99999999999999,150L29.999999999999993,150L32.99999999999999,150L36,150L39,150L42.00000000000001,150L45.00000000000001,150L48.00000000000001,150L51.000000000000014,150L54,150L57,150L60,150L62.999999999999986,150L65.99999999999999,150L69,150L72,150L75,150L78,150L81,150L84.00000000000001,150L87,150L90,150L93,150L96,150L99,150L102.00000000000001,150L105.00000000000001,150L108,150L111,150L114,150L117,150L120,150L123.00000000000001,150L126,150L129,150L132,150L135,150L138,150L141,150L144,150L147,150L150,150L153,150L156,150L159,150L162,150L165,150L168.00000000000003,150L171.00000000000003,150L174,150L177,150L180,150L183,150L186,150L189,150L192,150L195,150L198,150L201,150L204.00000000000003,150L207.00000000000003,150L210.00000000000003,150L213,150L216,150L219,150L222,150L225,150L228,150L231,150L234,150L237,150L240,150L243.00000000000003,150L246.00000000000003,150L249.00000000000003,150L252,150L255,150L258,150L261,150L264,150L267,150L270,150L273,150L276,150L279,150L282,150L285,150L288,150L291,150L294,150L297,150L300,150"></path>
  <path class="grid-line" stroke="black" stroke-width="1" fill="none" d="M0,119.99999999999997L3.0000000000000027,119.99999999999997L6.000000000000005,119.99999999999997L9.000000000000007,119.99999999999997L11.999999999999995,119.99999999999997L14.999999999999996,119.99999999999997L18,119.99999999999997L21.000000000000004,119.99999999999997L24.000000000000004,119.99999999999997L26.99999999999999,119.99999999999997L29.999999999999993,119.99999999999997L32.99999999999999,119.99999999999997L36,119.99999999999997L39,119.99999999999997L42.00000000000001,119.99999999999997L45.00000000000001,119.99999999999997L48.00000000000001,119.99999999999997L51.000000000000014,119.99999999999997L54,119.99999999999997L57,119.99999999999997L60,119.99999999999997L62.999999999999986,119.99999999999997L65.99999999999999,119.99999999999997L69,119.99999999999997L72,119.99999999999997L75,119.99999999999997L78,119.99999999999997L81,119.99999999999997L84.00000000000001,119.99999999999997L87,119.99999999999997L90,119.99999999999997L93,119.99999999999997L96,119.99999999999997L99,119.99999999999997L102.00000000000001,119.99999999999997L105.00000000000001,119.99999999999997L108,119.99999999999997L111,119.99999999999997L114,119.99999999999997L117,119.99999999999997L120,119.99999999999997L123.00000000000001,119.99999999999997L126,119.99999999999997L129,119.99999999999997L132,119.99999999999997L135,119.99999999999997L138,119.99999999999997L141,119.99999999999997L144,119.99999999999997L147,119.99999999999997L150,119.99999999999997L153,119.99999999999997L156,119.99999999999997L159,119.99999999999997L162,119.99999999999997L165,119.99999999999997L168.00000000000003,119.99999999999997L171.00000000000003,119.99999999999997L174,119.99999999999997L177,119.99999999999997L180,119.99999999999997L183,119.99999999999997L186,119.99999999999997L189,119.99999999999997L192,119.99999999999997L195,119.99999999999997L198,119.99999999999997L201,119.99999999999997L204.00000000000003,119.99999999999997L207.00000000000003,119.99999999999997L210.00000000000003,119.99999999999997L213,119.99999999999997L216,119.99999999999997L219,119.99999999999997L222,119.99999999999997L225,119.99999999999997L228,119.99999999999997L231,119.99999999999997L234,119.99999999999997L237,119.99999999999997L240,119.99999999999997L243.00000000000003,119.99999999999997L246.00000000000003,119.99999999999997L249.00000000000003,119.99999999999997L252,119.99999999999997L255,119.99999999999997L258,119.99999999999997L261,119.99999999999997L264,119.99999999999997L267,119.99999999999997L270,119.99999999999997L273,119.99999999999997L276,119.99999999999997L279,119.99999999999997L282,119.99999999999997L285,119.99999999999997L288,119.99999999999997L291,119.99999999999997L294,119.99999999999997L297,119.99999999999997L300,119.99999999999997"></path>
  <path class="grid-line" stroke="black" stroke-width="1" fill="none" d="M0,89.99999999999997L3.0000000000000027,89.99999999999997L6.000000000000005,89.99999999999997L9.000000000000007,89.99999999999997L11.999999999999995,89.99999999999997L14.999999999999996,89.99999999999997L18,89.99999999999997L21.000000000000004,89.99999999999997L24.000000000000004,89.99999999999997L26.99999999999999,89.99999999999997L29.999999999999993,89.99999999999997L32.99999999999999,89.99999999999997L36,89.99999999999997L39,89.99999999999997L42.00000000000001,89.99999999999997L45.00000000000001,89.99999999999997L48.00000000000001,89.99999999999997L51.000000000000014,89.99999999999997L54,89.99999999999997L57,89.99999999999997L60,89.99999999999997L62.999999999999986,89.99999999999997L65.99999999999999,89.99999999999997L69,89.99999999999997L72,89.99999999999997L75,89.99999999999997L78,89.99999999999997L81,89.99999999999997L84.00000000000001,89.99999999999997L87,89.99999999999997L90,89.99999999999997L93,89.99999999999997L96,89.99999999999997L99,89.99999999999997L102.00000000000001,89.99999999999997L105.00000000000001,89.99999999999997L108,89.99999999999997L111,89.99999999999997L114,89.99999999999997L117,89.99999999999997L120,89.99999999999997L123.00000000000001,89.99999999999997L126,89.99999999999997L129,89.99999999999997L132,89.99999999999997L135,89.99999999999997L138,89.99999999999997L141,89.99999999999997L144,89.99999999999997L147,89.99999999999997L150,89.99999999999997L153,89.99999999999997L156,89.99999999999997L159,89.99999999999997L162,89.99999999999997L165,89.99999999999997L168.00000000000003,89.99999999999997L171.00000000000003,89.99999999999997L174,89.99999999999997L177,89.99999999999997L180,89.99999999999997L183,89.99999999999997L186,89.99999999999997L189,89.99999999999997L192,89.99999999999997L195,89.99999999999997L198,89.99999999999997L201,89.99999999999997L204.00000000000003,89.99999999999997L207.00000000000003,89.99999999999997L210.00000000000003,89.99999999999997L213,89.99999999999997L216,89.99999999999997L219,89.99999999999997L222,89.99999999999997L225,89.99999999999997L228,89.99999999999997L231,89.99999999999997L234,89.99999999999997L237,89.99999999999997L240,89.99999999999997L243.00000000000003,89.99999999999997L246.00000000000003,89.99999999999997L249.00000000000003,89.99999999999997L252,89.99999999999997L255,89.99999999999997L258,89.99999999999997L261,89.99999999999997L264,89.99999999999997L267,89.99999999999997L270,89.99999999999997L273,89.99999999999997L276,89.99999999999997L279,89.99999999999997L282,89.99999999999997L285,89.99999999999997L288,89.99999999999997L291,89.99999999999997L294,89.99999999999997L297,89.99999999999997L300,89.99999999999997"></path>
  <path class="grid-line" stroke="black" stroke-width="1" fill="none" d="M0,60L3.0000000000000027,60L6.000000000000005,60L9.000000000000007,60L11.999999999999995,60L14.999999999999996,60L18,60L21.000000000000004,60L24.000000000000004,60L26.99999999999999,60L29.999999999999993,60L32.99999999999999,60L36,60L39,60L42.00000000000001,60L45.00000000000001,60L48.00000000000001,60L51.000000000000014,60L54,60L57,60L60,60L62.999999999999986,60L65.99999999999999,60L69,60L72,60L75,60L78,60L81,60L84.00000000000001,60L87,60L90,60L93,60L96,60L99,60L102.00000000000001,60L105.00000000000001,60L108,60L111,60L114,60L117,60L120,60L123.00000000000001,60L126,60L129,60L132,60L135,60L138,60L141,60L144,60L147,60L150,60L153,60L156,60L159,60L162,60L165,60L168.00000000000003,60L171.00000000000003,60L174,60L177,60L180,60L183,60L186,60L189,60L192,60L195,60L198,60L201,60L204.00000000000003,60L207.00000000000003,60L210.00000000000003,60L213,60L216,60L219,60L222,60L225,60L228,60L231,60L234,60L237,60L240,60L243.00000000000003,60L246.00000000000003,60L249.00000000000003,60L252,60L255,60L258,60L261,60L264,60L267,60L270,60L273,60L276,60L279,60L282,60L285,60L288,60L291,60L294,60L297,60L300,60"></path>
  <path class="grid-line" stroke="black" stroke-width="1" fill="none" d="M0,30L3.0000000000000027,30L6.000000000000005,30L9.000000000000007,30L11.999999999999995,30L14.999999999999996,30L18,30L21.000000000000004,30L24.000000000000004,30L26.99999999999999,30L29.999999999999993,30L32.99999999999999,30L36,30L39,30L42.00000000000001,30L45.00000000000001,30L48.00000000000001,30L51.000000000000014,30L54,30L57,30L60,30L62.999999999999986,30L65.99999999999999,30L69,30L72,30L75,30L78,30L81,30L84.00000000000001,30L87,30L90,30L93,30L96,30L99,30L102.00000000000001,30L105.00000000000001,30L108,30L111,30L114,30L117,30L120,30L123.00000000000001,30L126,30L129,30L132,30L135,30L138,30L141,30L144,30L147,30L150,30L153,30L156,30L159,30L162,30L165,30L168.00000000000003,30L171.00000000000003,30L174,30L177,30L180,30L183,30L186,30L189,30L192,30L195,30L198,30L201,30L204.00000000000003,30L207.00000000000003,30L210.00000000000003,30L213,30L216,30L219,30L222,30L225,30L228,30L231,30L234,30L237,30L240,30L243.00000000000003,30L246.00000000000003,30L249.00000000000003,30L252,30L255,30L258,30L261,30L264,30L267,30L270,30L273,30L276,30L279,30L282,30L285,30L288,30L291,30L294,30L297,30L300,30"></path>
  <path class="grid-line" stroke="black" stroke-width="1" fill="none" d="M0,0L3.0000000000000027,0L6.000000000000005,0L9.000000000000007,0L11.999999999999995,0L14.999999999999996,0L18,0L21.000000000000004,0L24.000000000000004,0L26.99999999999999,0L29.999999999999993,0L32.99999999999999,0L36,0L39,0L42.00000000000001,0L45.00000000000001,0L48.00000000000001,0L51.000000000000014,0L54,0L57,0L60,0L62.999999999999986,0L65.99999999999999,0L69,0L72,0L75,0L78,0L81,0L84.00000000000001,0L87,0L90,0L93,0L96,0L99,0L102.00000000000001,0L105.00000000000001,0L108,0L111,0L114,0L117,0L120,0L123.00000000000001,0L126,0L129,0L132,0L135,0L138,0L141,0L144,0L147,0L150,0L153,0L156,0L159,0L162,0L165,0L168.00000000000003,0L171.00000000000003,0L174,0L177,0L180,0L183,0L186,0L189,0L192,0L195,0L198,0L201,0L204.00000000000003,0L207.00000000000003,0L210.00000000000003,0L213,0L216,0L219,0L222,0L225,0L228,0L231,0L234,0L237,0L240,0L243.00000000000003,0L246.00000000000003,0L249.00000000000003,0L252,0L255,0L258,0L261,0L264,0L267,0L270,0L273,0L276,0L279,0L282,0L285,0L288,0L291,0L294,0L297,0L300,0"></path>
</svg>
