<?xml version="1.0" encoding="UTF-8" standalone="no"?>
<svg xmlns="http://www.w3.org/2000/svg" xmlns:xlink="http://www.w3.org/1999/xlink" width="420" height="490" version="1.1">
  <g transform="scale(0.7) translate(150, 200)">
    <path class="grid-line" stroke="#2ecc71" stroke-width="1" fill="none" d="M-756.5999999999999,777.5999999999999L-752.1899999999998,780.5999999999999L-747.78,783.5999999999999L-743.3699999999999,786.5999999999999L-738.96,789.5999999999999L-734.55,792.5999999999999L-730.1399999999999,795.5999999999999L-725.7299999999999,798.5999999999999L-721.3199999999999,801.5999999999999L-716.91,804.5999999999999L-712.4999999999999,807.5999999999999L-708.09,810.5999999999999L-703.68,813.5999999999999L-699.27,816.5999999999999L-694.8599999999999,819.5999999999999L-690.4499999999998,822.6L-686.04,825.5999999999999L-681.6299999999999,828.5999999999999L-677.2199999999999,831.5999999999999L-672.81,834.6L-668.4,837.5999999999999L-663.9899999999999,840.5999999999999L-659.5799999999999,843.5999999999999L-655.17,846.5999999999999L-650.7599999999999,849.5999999999999L-646.3499999999999,852.5999999999999L-641.9399999999999,855.5999999999999L-637.53,858.5999999999999L-633.12,861.5999999999999L-628.7099999999999,864.5999999999999L-624.3,867.5999999999998L-619.89,870.5999999999999L-615.48,873.6L-611.0699999999999,876.5999999999999L-606.66,879.5999999999998L-602.25,882.5999999999999L-597.8399999999999,885.6L-593.43,888.5999999999999L-589.0199999999999,891.5999999999999L-584.6099999999999,894.5999999999999L-580.1999999999999,897.6L-575.79,900.5999999999999L-571.38,903.5999999999999L-566.97,906.5999999999999L-562.56,909.5999999999999L-558.1499999999999,912.5999999999999L-553.7399999999999,915.5999999999999L-549.3299999999999,918.5999999999999L-544.92,921.5999999999999L-540.51,924.5999999999999L-536.1,927.5999999999999L-531.6899999999999,930.5999999999999L-527.2799999999999,933.5999999999999L-522.8699999999999,936.5999999999999L-518.4599999999999,939.5999999999999L-514.05,942.6L-509.64,945.5999999999999L-505.22999999999996,948.6L-500.82,951.5999999999999L-496.41,954.5999999999998L-492.00000000000006,957.5999999999999L-487.5899999999999,960.6L-483.17999999999995,963.5999999999999L-478.77,966.5999999999999L-474.35999999999996,969.5999999999999L-469.95,972.6L-465.5399999999999,975.5999999999999L-461.1299999999999,978.5999999999999L-456.7199999999999,981.5999999999999L-452.30999999999995,984.6L-447.9,987.5999999999999L-443.49,990.5999999999999L-439.08,993.5999999999999L-434.67,996.5999999999999L-430.26000000000005,999.5999999999999L-425.8499999999999,1002.5999999999999L-421.43999999999994,1005.5999999999999L-417.03,1008.5999999999999L-412.62,1011.5999999999999L-408.21,1014.5999999999999L-403.7999999999999,1017.6L-399.38999999999993,1020.5999999999999L-394.9799999999999,1023.6L-390.56999999999994,1026.6L-386.15999999999997,1029.6L-381.75,1032.6L-377.34000000000003,1035.6L-372.93,1038.6L-368.5199999999999,1041.6L-364.10999999999996,1044.6L-359.69999999999993,1047.6L-355.28999999999996,1050.6L-350.88,1053.6L-346.47,1056.6L-342.0599999999999,1059.6L-337.6499999999999,1062.6L-333.23999999999995,1065.6L-328.8299999999999,1068.6L-324.41999999999996,1071.6L-320.01,1074.6L-315.6,1077.6"></path>
    <path class="grid-line" stroke="#2ecc71" stroke-width="1" fill="none" d="M-683.7000000000002,680.4000000000001L-679.29,683.4000000000001L-674.8800000000001,686.4000000000001L-670.47,689.4000000000001L-666.0600000000002,692.4000000000001L-661.6500000000001,695.4000000000001L-657.2400000000001,698.4000000000001L-652.8300000000002,701.4000000000001L-648.4200000000001,704.4000000000001L-644.0100000000001,707.4000000000001L-639.6,710.4000000000001L-635.1900000000002,713.4000000000001L-630.7800000000001,716.4000000000001L-626.3700000000001,719.4000000000001L-621.9600000000002,722.4000000000001L-617.55,725.4000000000001L-613.1400000000001,728.4000000000001L-608.73,731.4000000000002L-604.32,734.4000000000001L-599.9100000000001,737.4000000000001L-595.5000000000001,740.4000000000001L-591.0900000000001,743.4000000000001L-586.6800000000002,746.4000000000001L-582.2700000000002,749.4000000000001L-577.86,752.4000000000001L-573.45,755.4000000000001L-569.0400000000001,758.4000000000001L-564.6300000000001,761.4000000000001L-560.2200000000001,764.4000000000001L-555.8100000000002,767.4000000000001L-551.4000000000002,770.4000000000001L-546.9900000000001,773.4000000000001L-542.5800000000002,776.4000000000001L-538.1700000000001,779.4000000000001L-533.7600000000001,782.4000000000001L-529.3500000000001,785.4000000000001L-524.9400000000002,788.4000000000001L-520.5300000000002,791.4000000000001L-516.12,794.4000000000001L-511.71000000000004,797.4000000000001L-507.30000000000007,800.4000000000001L-502.8900000000001,803.4000000000001L-498.48000000000013,806.4000000000001L-494.07000000000016,809.4000000000001L-489.6600000000001,812.4000000000001L-485.25,815.4000000000001L-480.8400000000001,818.4000000000001L-476.43000000000006,821.4000000000001L-472.0200000000001,824.4000000000001L-467.6100000000001,827.4000000000001L-463.20000000000016,830.4000000000001L-458.7900000000002,833.4000000000001L-454.38000000000005,836.4000000000001L-449.9700000000001,839.4000000000001L-445.5600000000001,842.4000000000001L-441.1500000000001,845.4000000000002L-436.7400000000001,848.4000000000001L-432.33000000000015,851.4000000000002L-427.9200000000002,854.4000000000001L-423.51000000000016,857.4000000000002L-419.1000000000002,860.4000000000001L-414.6900000000001,863.4000000000001L-410.2800000000001,866.4000000000001L-405.8700000000001,869.4000000000002L-401.46000000000015,872.4000000000001L-397.0500000000002,875.4000000000001L-392.64000000000004,878.4000000000001L-388.2300000000001,881.4000000000002L-383.8200000000001,884.4000000000001L-379.41000000000014,887.4000000000001L-375.0000000000001,890.4000000000001L-370.59000000000015,893.4000000000001L-366.1800000000002,896.4000000000001L-361.7700000000002,899.4000000000001L-357.3600000000002,902.4000000000001L-352.9500000000001,905.4000000000001L-348.54000000000013,908.4000000000001L-344.1300000000001,911.4000000000001L-339.72000000000014,914.4000000000001L-335.3100000000002,917.4000000000001L-330.90000000000003,920.4000000000002L-326.49000000000007,923.4000000000001L-322.0800000000001,926.4000000000002L-317.67000000000013,929.4000000000001L-313.26000000000016,932.4000000000002L-308.85000000000014,935.4000000000001L-304.44000000000017,938.4000000000001L-300.0300000000002,941.4000000000001L-295.62000000000006,944.4000000000002L-291.2100000000001,947.4000000000001L-286.8000000000001,950.4000000000001L-282.39000000000016,953.4000000000001L-277.98000000000013,956.4000000000002L-273.5700000000001,959.4000000000001L-269.16000000000014,962.4000000000001L-264.75000000000017,965.4000000000001L-260.34000000000015,968.4000000000001L-255.93000000000018,971.4000000000001L-251.52000000000015,974.4000000000001L-247.11000000000013,977.4000000000001L-242.70000000000016,980.4000000000001"></path>
    <path class="grid-line" stroke="#2ecc71" stroke-width="1" fill="none" d="M-610.8,583.2L-606.3899999999999,586.2L-601.98,589.2L-597.5699999999999,592.2L-593.1600000000001,595.2L-588.75,598.2L-584.34,601.2L-579.9300000000001,604.2L-575.52,607.2L-571.11,610.2L-566.6999999999999,613.2L-562.2900000000001,616.2L-557.88,619.2L-553.47,622.2L-549.0600000000001,625.2L-544.6499999999999,628.2L-540.24,631.2L-535.8299999999999,634.2L-531.42,637.2L-527.01,640.2L-522.6,643.2L-518.19,646.2L-513.7800000000001,649.2L-509.3700000000001,652.2L-504.9599999999999,655.2L-500.54999999999995,658.2L-496.14,661.2L-491.73,664.2L-487.31999999999994,667.2L-482.9100000000001,670.2L-478.5,673.2L-474.09000000000015,676.2L-469.68000000000006,679.2L-465.27,682.2L-460.86,685.2L-456.45000000000005,688.2L-452.03999999999996,691.2L-447.63000000000005,694.2L-443.21999999999997,697.2L-438.80999999999995,700.2L-434.4,703.2L-429.99,706.2L-425.58000000000004,709.2L-421.1700000000001,712.2L-416.76000000000005,715.2L-412.34999999999997,718.2L-407.93999999999994,721.2L-403.53,724.2L-399.12,727.2L-394.71000000000004,730.2L-390.30000000000007,733.2L-385.89000000000004,736.2L-381.47999999999996,739.2L-377.07,742.2L-372.65999999999997,745.2L-368.25,748.2L-363.84000000000003,751.2L-359.43000000000006,754.2L-355.0200000000001,757.2L-350.61000000000007,760.1999999999999L-346.2000000000001,763.2L-341.79,766.2L-337.38,769.2L-332.97,772.1999999999999L-328.56000000000006,775.2L-324.1500000000001,778.2L-319.73999999999995,781.2L-315.33,784.2L-310.92,787.2L-306.51,790.2L-302.1,793.2L-297.69000000000005,796.2L-293.2800000000001,799.2L-288.87,802.2L-284.46000000000004,805.2L-280.05000000000007,808.2L-275.64000000000004,811.2L-271.23,814.2L-266.82000000000005,817.2L-262.41,820.2L-258.00000000000006,823.2L-253.59000000000003,826.2L-249.18,829.2L-244.76999999999998,832.2L-240.36,835.1999999999999L-235.95000000000005,838.2L-231.54000000000008,841.2L-227.13,844.2L-222.72000000000003,847.1999999999999L-218.31000000000006,850.2L-213.90000000000003,853.2L-209.49,856.2L-205.08000000000004,859.1999999999999L-200.67000000000002,862.2L-196.26000000000005,865.2L-191.85000000000005,868.2L-187.44000000000008,871.1999999999999L-183.0300000000001,874.2L-178.62000000000003,877.1999999999999L-174.21000000000006,880.2L-169.8000000000001,883.1999999999999"></path>
    <path class="grid-line" stroke="#2ecc71" stroke-width="1" fill="none" d="M-537.8999999999999,485.9999999999999L-533.4899999999998,489L-529.0799999999999,491.9999999999999L-524.6699999999998,495L-520.26,497.9999999999999L-515.8499999999999,500.9999999999999L-511.43999999999994,503.9999999999999L-507.03,506.9999999999999L-502.62,509.9999999999999L-498.21000000000004,512.9999999999999L-493.79999999999984,515.9999999999999L-489.39,518.9999999999999L-484.9799999999999,522L-480.56999999999994,525L-476.15999999999997,528L-471.7499999999999,531L-467.34000000000003,534L-462.92999999999984,537L-458.51999999999987,540L-454.1099999999999,543L-449.69999999999993,546L-445.28999999999996,548.9999999999999L-440.88,552L-436.47,554.9999999999999L-432.05999999999983,558L-427.64999999999986,560.9999999999999L-423.2399999999999,564L-418.8299999999999,566.9999999999999L-414.4199999999999,570L-410.00999999999993,572.9999999999999L-405.59999999999997,575.9999999999999L-401.19,578.9999999999999L-396.78,582L-392.3699999999999,585L-387.9599999999999,588L-383.5499999999999,591L-379.13999999999993,594L-374.72999999999996,597L-370.3199999999998,600L-365.90999999999985,603L-361.4999999999999,606L-357.0899999999999,609L-352.67999999999995,612L-348.2699999999999,615L-343.85999999999996,618L-339.4499999999999,621L-335.03999999999985,624L-330.6299999999999,627L-326.2199999999999,629.9999999999999L-321.80999999999995,633L-317.4,635.9999999999999L-312.98999999999995,639L-308.57999999999987,641.9999999999999L-304.16999999999985,645L-299.7599999999999,647.9999999999999L-295.3499999999999,651L-290.93999999999994,653.9999999999999L-286.52999999999986,657L-282.11999999999995,660L-277.7099999999999,663L-273.29999999999995,666L-268.89,669L-264.4799999999999,672L-260.06999999999994,675L-255.65999999999997,678L-251.24999999999994,681L-246.83999999999992,684L-242.42999999999995,687L-238.01999999999992,690L-233.60999999999996,693L-229.19999999999993,696L-224.78999999999996,698.9999999999999L-220.38,702L-215.96999999999997,704.9999999999999L-211.55999999999995,708L-207.14999999999998,710.9999999999999L-202.73999999999995,714L-198.32999999999993,716.9999999999999L-193.91999999999996,720L-189.50999999999993,722.9999999999999L-185.09999999999997,726L-180.68999999999994,728.9999999999999L-176.27999999999992,732L-171.86999999999995,735L-167.45999999999998,738L-163.04999999999995,741L-158.64,743.9999999999999L-154.22999999999996,747L-149.82,750L-145.40999999999997,753L-140.99999999999994,755.9999999999999L-136.58999999999997,759L-132.17999999999995,762L-127.76999999999991,765L-123.35999999999994,767.9999999999999L-118.94999999999997,771L-114.53999999999998,773.9999999999999L-110.12999999999998,777L-105.71999999999996,779.9999999999999L-101.30999999999999,783L-96.89999999999999,785.9999999999999"></path>
    <path class="grid-line" stroke="#2ecc71" stroke-width="1" fill="none" d="M-465,388.80000000000007L-460.5899999999999,391.80000000000007L-456.18000000000006,394.80000000000007L-451.77,397.80000000000007L-447.36,400.8L-442.95000000000005,403.8L-438.53999999999996,406.8L-434.1300000000001,409.8L-429.72,412.80000000000007L-425.30999999999995,415.80000000000007L-420.9000000000001,418.80000000000007L-416.49,421.80000000000007L-412.08000000000004,424.80000000000007L-407.66999999999996,427.80000000000007L-403.2600000000001,430.80000000000007L-398.8499999999999,433.80000000000007L-394.44000000000005,436.80000000000007L-390.03000000000003,439.80000000000007L-385.62,442.80000000000007L-381.21000000000004,445.80000000000007L-376.79999999999995,448.80000000000007L-372.3900000000001,451.80000000000007L-367.97999999999996,454.8L-363.57,457.80000000000007L-359.16,460.8L-354.75000000000006,463.80000000000007L-350.34000000000003,466.8L-345.92999999999995,469.80000000000007L-341.52,472.8L-337.10999999999996,475.8L-332.7,478.8L-328.29,481.80000000000007L-323.88000000000005,484.80000000000007L-319.47,487.80000000000007L-315.06000000000006,490.80000000000007L-310.65,493.80000000000007L-306.23999999999995,496.80000000000007L-301.83,499.80000000000007L-297.42,502.80000000000007L-293.01000000000005,505.80000000000007L-288.6000000000001,508.80000000000007L-284.19,511.80000000000007L-279.78000000000003,514.8000000000001L-275.37,517.8000000000001L-270.96,520.8000000000001L-266.55,523.8000000000001L-262.14000000000004,526.8000000000001L-257.7300000000001,529.8000000000001L-253.32000000000005,532.8000000000001L-248.91000000000003,535.8L-244.5,538.8000000000001L-240.09000000000003,541.8L-235.68000000000006,544.8000000000001L-231.27000000000004,547.8L-226.86,550.8000000000001L-222.45000000000005,553.8L-218.03999999999996,556.8000000000001L-213.63,559.8L-209.22000000000008,562.8L-204.81000000000006,565.8L-200.40000000000003,568.8L-195.99000000000007,571.8000000000001L-191.58000000000004,574.8000000000001L-187.17000000000007,577.8000000000001L-182.76000000000005,580.8000000000001L-178.35000000000002,583.8000000000001L-173.94000000000005,586.8000000000001L-169.5300000000001,589.8000000000001L-165.12,592.8000000000001L-160.71000000000004,595.8000000000001L-156.30000000000007,598.8000000000001L-151.8900000000001,601.8000000000001L-147.48000000000008,604.8L-143.07000000000005,607.8000000000001L-138.66000000000008,610.8L-134.25000000000006,613.8000000000001L-129.84000000000003,616.8L-125.43000000000004,619.8000000000001L-121.02000000000007,622.8L-116.61000000000001,625.8000000000001L-112.20000000000005,628.8L-107.79000000000005,631.8000000000001L-103.38,634.8L-98.97000000000003,637.8000000000002L-94.56000000000006,640.8L-90.15000000000006,643.8L-85.74000000000007,646.8000000000001L-81.33000000000004,649.8000000000001L-76.92000000000007,652.8000000000001L-72.51000000000008,655.8000000000001L-68.10000000000002,658.8000000000001L-63.690000000000055,661.8000000000001L-59.28000000000006,664.8000000000001L-54.870000000000005,667.8000000000001L-50.460000000000036,670.8000000000001L-46.05000000000007,673.8000000000001L-41.64000000000007,676.8000000000001L-37.2300000000001,679.8L-32.82000000000005,682.8000000000001L-28.410000000000082,685.8L-24.000000000000085,688.8000000000001"></path>
    <path class="grid-line" stroke="#2ecc71" stroke-width="1" fill="none" d="M-392.0999999999999,291.6L-387.6899999999998,294.6L-383.28,297.6L-378.8699999999999,300.6000000000001L-374.46000000000004,303.6L-370.04999999999995,306.6L-365.64,309.6L-361.22999999999996,312.6L-356.82,315.6L-352.41,318.6L-347.9999999999999,321.6L-343.5900000000001,324.6L-339.17999999999995,327.6L-334.77,330.6L-330.36,333.6L-325.9499999999999,336.6L-321.54,339.6L-317.12999999999994,342.6L-312.7199999999999,345.6L-308.30999999999995,348.6L-303.9,351.6L-299.49,354.6L-295.08,357.6L-290.67,360.6L-286.26,363.6000000000001L-281.8499999999999,366.6000000000001L-277.43999999999994,369.6000000000001L-273.03,372.6000000000001L-268.62,375.6000000000001L-264.21000000000004,378.6L-259.8,381.6L-255.39000000000004,384.6L-250.98000000000002,387.6L-246.56999999999994,390.6L-242.15999999999997,393.6L-237.75,396.6L-233.34000000000003,399.6L-228.93000000000006,402.6L-224.51999999999998,405.6L-220.1099999999999,408.6L-215.69999999999993,411.6L-211.28999999999996,414.6L-206.88,417.6L-202.47000000000003,420.6L-198.06000000000006,423.6L-193.64999999999998,426.6L-189.23999999999995,429.6L-184.82999999999993,432.6L-180.41999999999996,435.6L-176.01,438.6L-171.60000000000002,441.6L-167.18999999999994,444.6L-162.77999999999997,447.6L-158.37,450.6000000000001L-153.95999999999992,453.6L-149.54999999999995,456.6000000000001L-145.14,459.6L-140.72999999999996,462.60000000000014L-136.32000000000005,465.6L-131.90999999999997,468.6L-127.5,471.6L-123.09000000000003,474.6L-118.67999999999995,477.6L-114.26999999999998,480.6L-109.86000000000001,483.6L-105.44999999999999,486.6L-101.03999999999999,489.6L-96.63,492.6L-92.21999999999997,495.6L-87.81,498.6L-83.4,501.6L-78.99000000000001,504.6L-74.58000000000004,507.6L-70.17000000000002,510.6L-65.76000000000002,513.6L-61.35000000000002,516.6L-56.94,519.6L-52.53,522.6L-48.12000000000003,525.6000000000001L-43.70999999999998,528.6L-39.30000000000001,531.6000000000001L-34.890000000000015,534.6L-30.47999999999996,537.6000000000001L-26.069999999999993,540.6L-21.660000000000025,543.6L-17.25000000000003,546.6L-12.84000000000006,549.6L-8.430000000000007,552.6L-4.02000000000001,555.6L0.38999999999995794,558.6L4.800000000000011,561.6L9.20999999999998,564.6L13.620000000000005,567.6L18.029999999999973,570.6L22.439999999999998,573.6L26.85000000000001,576.6L31.259999999999962,579.5999999999999L35.66999999999996,582.6L40.079999999999956,585.5999999999999L44.48999999999997,588.6000000000001L48.89999999999998,591.5999999999999"></path>
    <path class="grid-line" stroke="#2ecc71" stroke-width="1" fill="none" d="M-319.19999999999993,194.39999999999998L-314.78999999999985,197.39999999999998L-310.38,200.39999999999998L-305.9699999999998,203.39999999999998L-301.55999999999995,206.39999999999992L-297.14999999999986,209.39999999999992L-292.7399999999999,212.39999999999992L-288.3299999999999,215.39999999999992L-283.91999999999996,218.39999999999995L-279.5099999999999,221.39999999999995L-275.0999999999999,224.39999999999995L-270.68999999999994,227.39999999999995L-266.27999999999986,230.39999999999995L-261.8699999999999,233.39999999999998L-257.4599999999999,236.39999999999998L-253.0499999999998,239.39999999999998L-248.63999999999984,242.39999999999998L-244.22999999999982,245.39999999999998L-239.8199999999998,248.39999999999998L-235.40999999999983,251.39999999999998L-230.99999999999986,254.39999999999998L-226.5899999999999,257.4L-222.17999999999992,260.4L-217.76999999999995,263.4L-213.35999999999987,266.4L-208.94999999999985,269.4L-204.53999999999982,272.4L-200.12999999999985,275.4L-195.71999999999989,278.4L-191.30999999999992,281.3999999999999L-186.89999999999995,284.3999999999999L-182.48999999999998,287.3999999999999L-178.0799999999999,290.3999999999999L-173.66999999999982,293.3999999999999L-169.25999999999985,296.3999999999999L-164.84999999999988,299.4L-160.4399999999999,302.3999999999999L-156.02999999999994,305.3999999999999L-151.61999999999986,308.3999999999999L-147.20999999999984,311.3999999999999L-142.79999999999987,314.3999999999999L-138.38999999999984,317.4L-133.97999999999988,320.4L-129.5699999999999,323.4L-125.15999999999994,326.4L-120.74999999999986,329.4L-116.33999999999983,332.4L-111.92999999999986,335.4L-107.5199999999999,338.4L-103.10999999999987,341.4L-98.6999999999999,344.4L-94.28999999999988,347.4L-89.87999999999991,350.4L-85.46999999999989,353.4L-81.05999999999986,356.4L-76.64999999999989,359.4L-72.23999999999992,362.4L-67.82999999999984,365.4L-63.41999999999993,368.3999999999999L-59.009999999999906,371.3999999999999L-54.59999999999991,374.3999999999999L-50.18999999999994,377.3999999999999L-45.77999999999989,380.3999999999999L-41.36999999999992,383.3999999999999L-36.95999999999992,386.4L-32.54999999999987,389.4L-28.1399999999999,392.4L-23.729999999999933,395.4L-19.31999999999988,398.4L-14.909999999999883,401.4L-10.499999999999915,404.4L-6.089999999999918,407.4L-1.67999999999995,410.4L2.7300000000001035,413.3999999999999L7.140000000000072,416.4L11.550000000000097,419.3999999999999L15.960000000000065,422.4L20.37000000000009,425.3999999999999L24.780000000000115,428.4L29.190000000000083,431.3999999999999L33.60000000000011,434.4L38.010000000000105,437.4L42.4200000000001,440.4L46.8300000000001,443.4L51.24000000000004,446.3999999999999L55.65000000000006,449.3999999999999L60.06000000000009,452.4L64.47000000000006,455.4L68.88000000000008,458.4L73.29000000000009,461.4L77.70000000000007,464.4L82.11000000000008,467.4L86.5200000000001,470.4L90.93000000000008,473.4L95.34000000000009,476.4L99.7500000000001,479.4L104.16000000000005,482.39999999999986L108.57000000000006,485.4L112.98000000000005,488.39999999999986L117.39000000000006,491.4L121.80000000000007,494.3999999999999"></path>
    <path class="grid-line" stroke="#2ecc71" stroke-width="1" fill="none" d="M-246.29999999999993,97.19999999999996L-241.88999999999984,100.19999999999996L-237.47999999999988,103.19999999999996L-233.0699999999999,106.19999999999996L-228.65999999999994,109.1999999999999L-224.24999999999997,112.1999999999999L-219.8399999999999,115.1999999999999L-215.42999999999992,118.1999999999999L-211.01999999999995,121.1999999999999L-206.60999999999987,124.1999999999999L-202.1999999999999,127.1999999999999L-197.78999999999994,130.1999999999999L-193.37999999999985,133.19999999999993L-188.96999999999989,136.19999999999993L-184.55999999999992,139.19999999999993L-180.14999999999984,142.19999999999993L-175.73999999999987,145.19999999999993L-171.32999999999984,148.19999999999993L-166.91999999999987,151.19999999999996L-162.50999999999985,154.19999999999996L-158.09999999999988,157.19999999999996L-153.6899999999999,160.19999999999993L-149.27999999999994,163.19999999999993L-144.86999999999998,166.19999999999993L-140.4599999999999,169.19999999999993L-136.04999999999987,172.19999999999993L-131.6399999999999,175.19999999999993L-127.22999999999988,178.19999999999993L-122.81999999999991,181.19999999999993L-118.40999999999994,184.19999999999993L-113.99999999999997,187.19999999999993L-109.59,190.19999999999993L-105.17999999999992,193.19999999999993L-100.7699999999999,196.19999999999993L-96.35999999999993,199.19999999999993L-91.9499999999999,202.19999999999993L-87.53999999999994,205.19999999999993L-83.12999999999997,208.19999999999993L-78.71999999999994,211.19999999999993L-74.30999999999986,214.19999999999993L-69.89999999999989,217.19999999999993L-65.48999999999992,220.19999999999993L-61.079999999999956,223.19999999999993L-56.66999999999993,226.19999999999993L-52.25999999999996,229.19999999999993L-47.84999999999994,232.19999999999993L-43.439999999999884,235.19999999999993L-39.02999999999989,238.19999999999993L-34.61999999999992,241.19999999999993L-30.20999999999995,244.19999999999993L-25.799999999999955,247.19999999999993L-21.3899999999999,250.19999999999993L-16.979999999999933,253.19999999999993L-12.569999999999936,256.19999999999993L-8.159999999999911,259.19999999999993L-3.7499999999999147,262.19999999999993L0.6600000000000534,265.19999999999993L5.070000000000107,268.19999999999993L9.480000000000018,271.19999999999993L13.890000000000072,274.19999999999993L18.30000000000004,277.19999999999993L22.710000000000036,280.19999999999993L27.12000000000009,283.19999999999993L31.530000000000058,286.19999999999993L35.940000000000026,289.19999999999993L40.35000000000008,292.19999999999993L44.760000000000076,295.19999999999993L49.170000000000044,298.19999999999993L53.5800000000001,301.19999999999993L57.990000000000066,304.19999999999993L62.40000000000009,307.19999999999993L66.81000000000003,310.19999999999993L71.22000000000006,313.19999999999993L75.63000000000002,316.19999999999993L80.04000000000005,319.19999999999993L84.45000000000006,322.19999999999993L88.86000000000004,325.19999999999993L93.27000000000005,328.19999999999993L97.68000000000006,331.19999999999993L102.09000000000005,334.19999999999993L106.50000000000006,337.2L110.91000000000008,340.20000000000005L115.32000000000005,343.20000000000005L119.73000000000008,346.20000000000005L124.14000000000001,349.19999999999993L128.55000000000004,352.19999999999993L132.96000000000004,355.19999999999993L137.37000000000003,358.19999999999993L141.78000000000003,361.19999999999993L146.19000000000005,364.19999999999993L150.60000000000002,367.19999999999993L155.01000000000005,370.19999999999993L159.42000000000007,373.19999999999993L163.83000000000007,376.19999999999993L168.24000000000007,379.19999999999993L172.65000000000006,382.19999999999993L177.06000000000003,385.19999999999993L181.47000000000003,388.19999999999993L185.88000000000002,391.19999999999993L190.29000000000002,394.19999999999993L194.70000000000005,397.19999999999993"></path>
    <path class="grid-line" stroke="#2ecc71" stroke-width="1" fill="none" d="M-173.39999999999998,0L-168.98999999999984,2.999999999999943L-164.57999999999987,6L-160.16999999999985,9L-155.75999999999988,11.999999999999943L-151.3499999999999,14.999999999999943L-146.93999999999994,17.999999999999943L-142.52999999999997,20.999999999999943L-138.12,23.999999999999943L-133.70999999999987,26.999999999999943L-129.29999999999984,29.999999999999943L-124.88999999999987,32.99999999999994L-120.4799999999999,35.99999999999994L-116.06999999999994,38.99999999999994L-111.65999999999997,41.99999999999994L-107.24999999999983,44.99999999999997L-102.83999999999986,47.99999999999997L-98.4299999999999,50.99999999999997L-94.01999999999987,53.99999999999997L-89.6099999999999,56.99999999999997L-85.19999999999987,60L-80.78999999999996,62.99999999999994L-76.37999999999988,65.99999999999997L-71.96999999999991,68.99999999999997L-67.55999999999989,71.99999999999997L-63.14999999999992,74.99999999999997L-58.739999999999895,77.99999999999997L-54.32999999999993,80.99999999999997L-49.9199999999999,83.99999999999997L-45.50999999999999,86.99999999999994L-41.09999999999991,89.99999999999994L-36.68999999999994,92.99999999999994L-32.279999999999916,95.99999999999994L-27.869999999999948,98.99999999999994L-23.459999999999923,101.99999999999994L-19.049999999999898,104.99999999999997L-14.63999999999993,107.99999999999997L-10.229999999999933,110.99999999999997L-5.8199999999998795,113.99999999999997L-1.4099999999999113,116.99999999999997L3.000000000000057,119.99999999999997L7.410000000000053,122.99999999999997L11.82000000000005,125.99999999999997L16.230000000000075,128.99999999999997L20.640000000000043,131.99999999999997L25.050000000000068,135L29.460000000000093,138L33.87000000000006,141L38.28000000000003,143.99999999999997L42.690000000000055,146.99999999999997L47.10000000000008,149.99999999999997L51.51000000000005,152.99999999999997L55.92000000000007,155.99999999999997L60.3300000000001,158.99999999999997L64.74000000000007,161.99999999999997L69.15000000000009,164.99999999999997L73.56000000000009,167.99999999999997L77.97000000000008,170.99999999999997L82.38000000000005,173.99999999999994L86.79000000000002,176.99999999999994L91.20000000000005,179.99999999999994L95.61000000000007,182.99999999999994L100.02000000000004,185.99999999999997L104.43000000000006,188.99999999999997L108.84000000000009,191.99999999999997L113.25000000000006,194.99999999999997L117.66000000000007,197.99999999999997L122.07000000000008,200.99999999999997L126.48000000000006,204L130.89000000000007,207L135.3000000000001,210L139.71000000000004,212.99999999999994L144.12000000000006,215.99999999999994L148.53000000000003,218.99999999999994L152.94000000000005,221.99999999999994L157.35000000000005,224.99999999999997L161.76000000000005,227.99999999999997L166.17000000000004,230.99999999999997L170.58000000000007,233.99999999999997L174.99000000000004,236.99999999999997L179.40000000000006,239.99999999999997L183.81000000000006,243L188.22000000000006,246L192.63000000000008,249L197.04000000000002,251.99999999999994L201.45000000000002,254.99999999999994L205.86000000000004,257.99999999999994L210.27,261L214.68000000000004,264L219.09000000000006,267L223.50000000000003,270L227.91000000000005,273L232.32000000000005,276L236.73000000000005,279L241.14000000000004,282L245.55000000000007,285L249.96,287.99999999999994L254.37000000000003,290.99999999999994L258.78000000000003,293.99999999999994L263.19,296.99999999999994L267.6,299.99999999999994"></path>
    <path class="grid-line" stroke="#2ecc71" stroke-width="1" fill="none" d="M-100.49999999999994,-97.20000000000005L-96.08999999999986,-94.20000000000005L-91.6799999999999,-91.19999999999999L-87.26999999999992,-88.19999999999999L-82.8599999999999,-85.2000000000001L-78.44999999999993,-82.20000000000005L-74.0399999999999,-79.20000000000005L-69.62999999999994,-76.20000000000005L-65.21999999999991,-73.20000000000005L-60.80999999999989,-70.20000000000005L-56.39999999999992,-67.20000000000005L-51.98999999999995,-64.20000000000005L-47.57999999999987,-61.200000000000045L-43.1699999999999,-58.200000000000045L-38.759999999999934,-55.200000000000045L-34.34999999999991,-52.200000000000045L-29.939999999999884,-49.200000000000045L-25.529999999999916,-46.200000000000045L-21.119999999999948,-43.200000000000045L-16.709999999999866,-40.19999999999999L-12.299999999999898,-37.200000000000045L-7.8899999999999295,-34.200000000000045L-3.4799999999999613,-31.200000000000045L0.9300000000000068,-28.200000000000045L5.340000000000089,-25.200000000000045L9.750000000000057,-22.200000000000045L14.160000000000082,-19.200000000000045L18.57000000000008,-16.19999999999999L22.980000000000103,-13.199999999999989L27.390000000000043,-10.200000000000102L31.800000000000068,-7.199999999999989L36.210000000000036,-4.2000000000000455L40.62000000000006,-1.1999999999999886L45.030000000000086,1.7999999999999545L49.440000000000055,4.7999999999999545L53.85000000000011,7.800000000000011L58.260000000000076,10.799999999999955L62.67000000000007,13.799999999999955L67.08000000000007,16.799999999999955L71.49000000000007,19.80000000000001L75.90000000000006,22.80000000000001L80.31000000000009,25.80000000000001L84.72000000000006,28.799999999999955L89.13000000000008,31.799999999999955L93.54000000000008,34.799999999999955L97.95000000000007,37.799999999999955L102.36000000000007,40.799999999999955L106.77000000000007,43.799999999999955L111.18000000000006,46.79999999999998L115.59000000000006,49.79999999999998L120.00000000000006,52.79999999999998L124.41000000000005,55.79999999999998L128.82000000000008,58.79999999999998L133.23000000000005,61.79999999999998L137.64000000000007,64.79999999999998L142.05000000000007,67.79999999999998L146.4600000000001,70.79999999999998L150.87000000000006,73.80000000000001L155.28000000000003,76.79999999999995L159.69000000000003,79.79999999999998L164.10000000000005,82.79999999999998L168.51000000000002,85.79999999999998L172.92000000000004,88.79999999999998L177.33000000000004,91.79999999999998L181.74000000000004,94.79999999999998L186.15000000000006,97.79999999999998L190.56000000000006,100.79999999999998L194.97000000000006,103.79999999999998L199.38000000000005,106.79999999999998L203.79000000000008,109.80000000000001L208.20000000000005,112.80000000000001L212.61000000000004,115.79999999999998L217.02,118.79999999999998L221.43000000000004,121.79999999999998L225.84000000000003,124.79999999999998L230.25000000000003,127.79999999999998L234.66000000000003,130.79999999999998L239.07000000000005,133.79999999999998L243.48000000000002,136.79999999999998L247.89000000000004,139.79999999999998L252.30000000000007,142.79999999999998L256.71000000000004,145.79999999999998L261.12000000000006,148.8L265.5300000000001,151.8L269.94,154.79999999999998L274.35,157.79999999999998L278.76,160.79999999999998L283.17,163.79999999999998L287.58000000000004,166.79999999999998L291.99,169.79999999999998L296.40000000000003,172.79999999999998L300.81000000000006,175.79999999999998L305.22,178.8L309.63000000000005,181.8L314.0400000000001,184.8L318.45000000000005,187.8L322.86,190.79999999999995L327.27,193.79999999999995L331.67999999999995,196.79999999999995L336.09000000000003,199.79999999999998L340.5,202.79999999999998"></path>
    <path class="grid-line" stroke="#2ecc71" stroke-width="1" fill="none" d="M-27.599999999999966,-194.40000000000003L-23.18999999999994,-191.40000000000003L-18.779999999999916,-188.40000000000003L-14.369999999999948,-185.40000000000003L-9.95999999999998,-182.40000000000003L-5.550000000000011,-179.40000000000003L-1.1399999999999295,-176.40000000000003L3.2700000000000387,-173.40000000000003L7.680000000000007,-170.40000000000003L12.090000000000089,-167.40000000000003L16.500000000000057,-164.40000000000003L20.910000000000025,-161.40000000000003L25.32000000000005,-158.40000000000003L29.730000000000075,-155.39999999999998L34.14000000000004,-152.39999999999998L38.55000000000007,-149.39999999999998L42.960000000000036,-146.39999999999998L47.37000000000006,-143.39999999999998L51.78000000000006,-140.39999999999998L56.19000000000008,-137.39999999999998L60.60000000000008,-134.39999999999998L65.01000000000005,-131.40000000000003L69.42000000000004,-128.40000000000003L73.83000000000004,-125.40000000000003L78.24000000000004,-122.40000000000003L82.65000000000006,-119.40000000000003L87.06000000000003,-116.40000000000003L91.47000000000006,-113.40000000000003L95.88000000000005,-110.40000000000003L100.29000000000002,-107.40000000000003L104.70000000000005,-104.40000000000003L109.11000000000001,-101.40000000000003L113.52000000000004,-98.40000000000003L117.93000000000004,-95.40000000000003L122.34000000000003,-92.40000000000003L126.75000000000006,-89.40000000000003L131.16000000000005,-86.40000000000003L135.57000000000002,-83.40000000000003L139.98000000000005,-80.39999999999998L144.39000000000004,-77.39999999999998L148.80000000000004,-74.39999999999998L153.21000000000004,-71.39999999999998L157.62000000000003,-68.39999999999998L162.0300000000001,-65.39999999999998L166.44000000000005,-62.39999999999998L170.85000000000002,-59.39999999999998L175.26000000000008,-56.39999999999998L179.67000000000007,-53.39999999999998L184.08000000000004,-50.400000000000034L188.49000000000004,-47.400000000000034L192.90000000000006,-44.400000000000034L197.31000000000006,-41.400000000000034L201.72000000000003,-38.400000000000034L206.13000000000005,-35.39999999999998L210.54000000000005,-32.400000000000034L214.95000000000005,-29.399999999999977L219.3600000000001,-26.400000000000034L223.77000000000007,-23.399999999999977L228.18,-20.400000000000034L232.59000000000003,-17.400000000000034L237,-14.400000000000034L241.41000000000003,-11.400000000000034L245.82000000000005,-8.400000000000034L250.23000000000002,-5.399999999999977L254.64000000000004,-2.3999999999999773L259.05000000000007,0.6000000000000227L263.46000000000004,3.6000000000000227L267.87000000000006,6.600000000000023L272.28000000000003,9.600000000000023L276.69000000000005,12.600000000000023L281.1,15.600000000000023L285.51,18.599999999999966L289.92,21.599999999999966L294.33000000000004,24.599999999999966L298.74,27.599999999999966L303.15,30.599999999999966L307.56000000000006,33.60000000000002L311.97,36.60000000000002L316.38000000000005,39.60000000000002L320.79,42.60000000000002L325.20000000000005,45.599999999999994L329.61,48.60000000000002L334.02000000000004,51.60000000000002L338.43,54.60000000000002L342.84000000000003,57.599999999999994L347.25,60.599999999999994L351.66,63.599999999999994L356.07,66.6L360.48,69.6L364.89,72.6L369.3,75.6L373.71000000000004,78.6L378.12000000000006,81.6L382.53000000000003,84.60000000000002L386.94,87.60000000000002L391.35,90.60000000000002L395.76,93.6L400.16999999999996,96.6L404.58,99.6L408.99,102.6L413.40000000000003,105.6"></path>
    <path class="grid-line" stroke="#2ecc71" stroke-width="1" fill="none" d="M-756.5999999999999,777.5999999999999L-749.3100000000001,767.8799999999999L-742.02,758.1599999999999L-734.7299999999999,748.4399999999998L-727.4399999999999,738.72L-720.15,729L-712.86,719.28L-705.57,709.5600000000001L-698.28,699.8399999999999L-690.99,690.1200000000001L-683.7000000000002,680.4000000000001L-676.4100000000001,670.6800000000001L-669.12,660.96L-661.83,651.24L-654.54,641.5200000000001L-647.2500000000001,631.8000000000001L-639.96,622.0799999999999L-632.67,612.3599999999999L-625.38,602.64L-618.09,592.92L-610.8,583.2L-603.51,573.48L-596.2199999999999,563.76L-588.93,554.04L-581.64,544.3199999999999L-574.3499999999999,534.5999999999999L-567.06,524.8799999999999L-559.7699999999999,515.1599999999999L-552.4799999999999,505.4399999999999L-545.1899999999999,495.72L-537.8999999999999,486L-530.61,476.28000000000003L-523.32,466.56000000000006L-516.03,456.8399999999999L-508.74,447.12000000000006L-501.44999999999993,437.3999999999999L-494.1600000000001,427.68000000000006L-486.87,417.96000000000004L-479.5799999999999,408.24000000000007L-472.28999999999996,398.5200000000001L-465,388.80000000000007L-457.71000000000004,379.0800000000001L-450.41999999999996,369.36000000000007L-443.1299999999999,359.64000000000004L-435.8399999999999,349.92L-428.54999999999995,340.20000000000005L-421.26,330.48L-413.9699999999999,320.76000000000005L-406.67999999999995,311.0400000000001L-399.3900000000001,301.32000000000005L-392.0999999999999,291.6L-384.80999999999995,281.88000000000005L-377.52,272.15999999999997L-370.2299999999999,262.44L-362.94000000000005,252.72L-355.64999999999986,243L-348.3599999999999,233.28L-341.06999999999994,223.55999999999995L-333.78000000000003,213.8400000000001L-326.48999999999995,204.12L-319.20000000000005,194.40000000000003L-311.90999999999997,184.68L-304.62,174.96000000000004L-297.33,165.24000000000004L-290.0399999999999,155.51999999999998L-282.74999999999994,145.79999999999998L-275.4599999999999,136.08L-268.16999999999996,126.36000000000001L-260.88,116.63999999999993L-253.5899999999999,106.91999999999996L-246.29999999999993,97.19999999999996L-239.01,87.48000000000002L-231.72000000000003,77.76000000000002L-224.43,68.04000000000002L-217.13999999999993,58.32000000000005L-209.8499999999999,48.60000000000005L-202.55999999999995,38.879999999999995L-195.26999999999998,29.159999999999968L-187.97999999999996,19.439999999999998L-180.68999999999994,9.71999999999997L-173.39999999999998,0L-166.10999999999987,-9.720000000000084L-158.8199999999999,-19.440000000000055L-151.5299999999999,-29.160000000000025L-144.24,-38.879999999999995L-136.94999999999993,-48.599999999999966L-129.65999999999997,-58.31999999999999L-122.37,-68.04000000000002L-115.07999999999998,-77.76000000000005L-107.7899999999999,-87.48000000000002L-100.49999999999994,-97.20000000000005L-93.20999999999992,-106.92000000000002L-85.91999999999996,-116.63999999999999L-78.62999999999994,-126.36000000000007L-71.33999999999992,-136.08000000000004L-64.04999999999984,-145.80000000000007L-56.759999999999934,-155.51999999999998L-49.46999999999997,-165.24L-42.17999999999995,-174.95999999999998L-34.889999999999986,-184.67999999999995L-27.599999999999966,-194.40000000000003"></path>
    <path class="grid-line" stroke="#2ecc71" stroke-width="1" fill="none" d="M-712.4999999999999,807.5999999999999L-705.21,797.8799999999999L-697.92,788.1599999999999L-690.63,778.4399999999999L-683.3399999999999,768.72L-676.0500000000001,759L-668.76,749.2800000000001L-661.4699999999999,739.5600000000001L-654.18,729.8399999999999L-646.8900000000001,720.1200000000001L-639.6,710.4000000000001L-632.31,700.6800000000001L-625.0199999999999,690.96L-617.7300000000001,681.2400000000001L-610.44,671.5200000000001L-603.15,661.8000000000002L-595.8599999999999,652.0799999999999L-588.5699999999999,642.36L-581.2800000000001,632.64L-573.99,622.9200000000001L-566.6999999999999,613.2L-559.4099999999999,603.48L-552.1199999999999,593.76L-544.83,584.04L-537.54,574.32L-530.2499999999999,564.5999999999999L-522.9599999999999,554.8799999999999L-515.6699999999998,545.1599999999999L-508.38,535.4399999999999L-501.0899999999999,525.72L-493.79999999999995,516L-486.51,506.2800000000001L-479.22,496.56000000000006L-471.92999999999984,486.8399999999999L-464.64,477.12L-457.3499999999999,467.4L-450.05999999999995,457.68000000000006L-442.77,447.9600000000001L-435.48,438.24L-428.19000000000005,428.52000000000004L-420.9000000000001,418.80000000000007L-413.61,409.08000000000004L-406.31999999999994,399.36L-399.03,389.64L-391.74,379.91999999999996L-384.44999999999993,370.2L-377.15999999999985,360.48L-369.86999999999995,350.76L-362.58000000000004,341.04L-355.28999999999996,331.32L-347.9999999999999,321.6L-340.71,311.88L-333.4200000000001,302.15999999999997L-326.13,292.44L-318.8399999999999,282.71999999999997L-311.54999999999984,273L-304.26,263.28L-296.9699999999999,253.55999999999995L-289.67999999999995,243.8400000000001L-282.39,234.12L-275.09999999999997,224.40000000000003L-267.81,214.68L-260.5199999999999,204.96000000000004L-253.22999999999996,195.24L-245.93999999999994,185.51999999999998L-238.64999999999986,175.79999999999995L-231.35999999999996,166.07999999999998L-224.06999999999994,156.35999999999999L-216.77999999999994,146.63999999999996L-209.48999999999987,136.92L-202.1999999999999,127.1999999999999L-194.90999999999997,117.48000000000005L-187.62,107.76000000000005L-180.32999999999993,98.03999999999999L-173.03999999999996,88.32L-165.74999999999994,78.6L-158.45999999999992,68.88L-151.16999999999996,59.160000000000025L-143.87999999999994,49.43999999999994L-136.58999999999992,39.71999999999997L-129.29999999999984,29.999999999999943L-122.00999999999996,20.279999999999973L-114.71999999999989,10.559999999999945L-107.42999999999992,0.8399999999999181L-100.13999999999999,-8.879999999999939L-92.84999999999997,-18.599999999999966L-85.55999999999995,-28.319999999999993L-78.26999999999998,-38.04000000000002L-70.9799999999999,-47.75999999999999L-63.68999999999994,-57.48000000000002L-56.39999999999992,-67.20000000000005L-49.1099999999999,-76.92000000000007L-41.819999999999936,-86.64000000000004L-34.529999999999916,-96.36000000000007L-27.239999999999952,-106.08000000000004L-19.949999999999875,-115.80000000000013L-12.659999999999911,-125.51999999999998L-5.369999999999948,-135.23999999999995L1.9200000000000728,-144.96000000000004L9.210000000000036,-154.68L16.500000000000057,-164.40000000000003"></path>
    <path class="grid-line" stroke="#2ecc71" stroke-width="1" fill="none" d="M-668.4,837.5999999999999L-661.11,827.88L-653.8199999999999,818.16L-646.5299999999999,808.4399999999999L-639.2399999999999,798.72L-631.95,789.0000000000001L-624.66,779.2800000000001L-617.37,769.5600000000002L-610.0799999999999,759.8399999999999L-602.7900000000001,750.1200000000001L-595.5000000000001,740.4000000000001L-588.21,730.6800000000001L-580.92,720.9600000000002L-573.63,711.2400000000001L-566.34,701.5200000000002L-559.05,691.8000000000002L-551.76,682.08L-544.4699999999999,672.36L-537.18,662.6400000000001L-529.8899999999999,652.9200000000001L-522.6,643.2L-515.31,633.48L-508.01999999999987,623.76L-500.73,614.0400000000001L-493.4399999999998,604.32L-486.15,594.5999999999999L-478.8599999999999,584.8799999999999L-471.5699999999998,575.1599999999999L-464.28,565.4399999999999L-456.99,555.72L-449.6999999999998,546.0000000000001L-442.40999999999997,536.2800000000001L-435.1199999999999,526.5600000000001L-427.8299999999999,516.8399999999999L-420.53999999999996,507.12L-413.2499999999999,497.4L-405.9599999999999,487.6800000000001L-398.67,477.96000000000015L-391.37999999999994,468.24000000000007L-384.09,458.5200000000001L-376.79999999999995,448.80000000000007L-369.51,439.08000000000004L-362.2199999999999,429.36000000000007L-354.9299999999999,419.64L-347.63999999999993,409.92L-340.3499999999999,400.20000000000005L-333.05999999999995,390.48L-325.76999999999987,380.76000000000005L-318.47999999999996,371.04L-311.1899999999999,361.32000000000005L-303.9,351.6L-296.6099999999999,341.88000000000005L-289.32,332.15999999999997L-282.0299999999999,322.44L-274.73999999999984,312.72L-267.44999999999993,303L-260.15999999999985,293.28000000000003L-252.86999999999986,283.55999999999995L-245.57999999999998,273.8400000000001L-238.28999999999996,264.12000000000006L-230.99999999999994,254.40000000000003L-223.70999999999992,244.68000000000006L-216.41999999999985,234.96000000000004L-209.12999999999994,225.24000000000007L-201.83999999999992,215.51999999999998L-194.5499999999999,205.8L-187.25999999999988,196.07999999999998L-179.9699999999999,186.36L-172.67999999999992,176.64L-165.38999999999984,166.92L-158.09999999999988,157.19999999999996L-150.80999999999995,147.48000000000008L-143.51999999999992,137.76000000000008L-136.2299999999999,128.04000000000002L-128.93999999999994,118.32000000000002L-121.64999999999992,108.60000000000002L-114.3599999999999,98.88000000000002L-107.06999999999988,89.16000000000003L-99.77999999999986,79.43999999999997L-92.4899999999999,69.71999999999997L-85.19999999999987,60L-77.90999999999988,50.28L-70.61999999999986,40.559999999999945L-63.3299999999999,30.839999999999918L-56.039999999999964,21.12000000000006L-48.749999999999886,11.400000000000034L-41.45999999999992,1.6800000000000068L-34.1699999999999,-8.039999999999964L-26.87999999999988,-17.75999999999999L-19.589999999999918,-27.47999999999996L-12.299999999999898,-37.200000000000045L-5.009999999999934,-46.920000000000016L2.2800000000001432,-56.64000000000004L9.570000000000164,-66.36000000000001L16.860000000000127,-76.08000000000004L24.150000000000148,-85.80000000000007L31.440000000000055,-95.51999999999992L38.730000000000075,-105.23999999999995L46.020000000000095,-114.95999999999998L53.31000000000009,-124.68L60.60000000000008,-134.39999999999998"></path>
    <path class="grid-line" stroke="#2ecc71" stroke-width="1" fill="none" d="M-624.3,867.6L-617.0099999999999,857.88L-609.7199999999999,848.16L-602.4299999999998,838.4399999999999L-595.14,828.7200000000001L-587.8499999999999,819.0000000000001L-580.5599999999998,809.2800000000002L-573.2700000000001,799.5600000000002L-565.98,789.84L-558.6899999999999,780.1200000000001L-551.4000000000002,770.4000000000001L-544.1100000000001,760.6800000000002L-536.82,750.9600000000002L-529.53,741.2400000000002L-522.2399999999999,731.5200000000002L-514.9499999999999,721.8000000000002L-507.6600000000001,712.08L-500.37,702.3600000000001L-493.0799999999999,692.6400000000001L-485.78999999999996,682.9200000000001L-478.5,673.2L-471.2099999999999,663.48L-463.91999999999996,653.76L-456.6299999999999,644.0400000000001L-449.3399999999999,634.3200000000002L-442.04999999999995,624.5999999999999L-434.76,614.8799999999999L-427.46999999999986,605.16L-420.17999999999984,595.4399999999999L-412.89000000000004,585.72L-405.59999999999997,576.0000000000001L-398.3099999999999,566.2800000000002L-391.02,556.5600000000002L-383.73,546.84L-376.44,537.12L-369.1499999999999,527.4L-361.85999999999996,517.6800000000002L-354.57000000000005,507.96000000000015L-347.28,498.24L-339.98999999999995,488.52L-332.7,478.8L-325.4100000000001,469.08000000000004L-318.12,459.36L-310.8299999999999,449.64000000000004L-303.53999999999985,439.9200000000001L-296.24999999999994,430.20000000000005L-288.9599999999999,420.48L-281.66999999999996,410.76000000000005L-274.37999999999994,401.0400000000001L-267.09,391.32000000000005L-259.79999999999995,381.6000000000001L-252.51,371.8800000000001L-245.21999999999997,362.16L-237.92999999999995,352.44L-230.63999999999987,342.72L-223.3499999999999,333L-216.05999999999992,323.28000000000003L-208.76999999999984,313.55999999999995L-201.48000000000002,303.8400000000001L-194.19,294.12L-186.89999999999992,284.40000000000003L-179.61,274.68000000000006L-172.31999999999994,264.96000000000004L-165.02999999999997,255.24000000000007L-157.73999999999995,245.51999999999998L-150.44999999999987,235.8L-143.15999999999997,226.07999999999998L-135.8699999999999,216.36L-128.5799999999999,206.64L-121.28999999999988,196.91999999999996L-113.99999999999991,187.19999999999993L-106.70999999999998,177.48000000000008L-99.41999999999996,167.76000000000005L-92.12999999999988,158.04000000000002L-84.83999999999997,148.32000000000005L-77.54999999999995,138.60000000000005L-70.25999999999993,128.88L-62.969999999999914,119.16L-55.67999999999995,109.44L-48.38999999999993,99.72L-41.09999999999985,89.99999999999997L-33.80999999999992,80.27999999999994L-26.519999999999897,70.55999999999995L-19.229999999999876,60.839999999999975L-11.93999999999994,51.12000000000003L-4.649999999999977,41.400000000000034L2.640000000000043,31.680000000000064L9.930000000000035,21.960000000000036L17.220000000000084,12.240000000000009L24.510000000000076,2.519999999999982L31.800000000000097,-7.199999999999989L39.09000000000009,-16.920000000000016L46.38000000000008,-26.639999999999986L53.67000000000013,-36.36000000000007L60.96000000000012,-46.08000000000004L68.25000000000011,-55.80000000000007L75.54000000000002,-65.51999999999998L82.83000000000004,-75.23999999999995L90.12000000000006,-84.95999999999998L97.41000000000008,-94.67999999999995L104.70000000000005,-104.40000000000003"></path>
    <path class="grid-line" stroke="#2ecc71" stroke-width="1" fill="none" d="M-580.1999999999999,897.6L-572.91,887.88L-565.6199999999999,878.16L-558.3299999999998,868.44L-551.04,858.72L-543.75,849L-536.4599999999999,839.28L-529.17,829.5600000000001L-521.88,819.84L-514.59,810.1200000000001L-507.30000000000007,800.4000000000001L-500.01,790.6800000000001L-492.72,780.96L-485.43000000000006,771.24L-478.14,761.52L-470.85,751.8000000000001L-463.55999999999995,742.0800000000002L-456.27000000000004,732.3600000000001L-448.97999999999996,722.6400000000001L-441.69000000000005,712.9200000000001L-434.4,703.2L-427.1099999999999,693.48L-419.82,683.76L-412.5299999999999,674.04L-405.24,664.32L-397.94999999999993,654.5999999999999L-390.66,644.8799999999999L-383.36999999999995,635.1599999999999L-376.07999999999987,625.4399999999999L-368.78999999999996,615.72L-361.5,606L-354.21,596.2800000000001L-346.92,586.5600000000001L-339.62999999999994,576.8399999999999L-332.34000000000003,567.12L-325.04999999999995,557.4L-317.76000000000005,547.6800000000001L-310.46999999999997,537.96L-303.18000000000006,528.24L-295.89,518.52L-288.6000000000001,508.80000000000007L-281.31,499.08000000000004L-274.0199999999999,489.36000000000007L-266.73,479.64L-259.43999999999994,469.92L-252.14999999999998,460.20000000000005L-244.85999999999996,450.48L-237.57000000000005,440.76L-230.27999999999997,431.04L-222.99,421.32000000000005L-215.69999999999993,411.6L-208.41000000000003,401.88000000000005L-201.12,392.15999999999997L-193.82999999999993,382.44L-186.53999999999996,372.71999999999997L-179.2499999999999,363L-171.96,353.28L-164.66999999999993,343.55999999999995L-157.38,333.8400000000001L-150.09000000000003,324.12L-142.79999999999995,314.40000000000003L-135.51,304.68L-128.22000000000003,294.96000000000004L-120.92999999999995,285.24000000000007L-113.63999999999999,275.52L-106.34999999999991,265.79999999999995L-99.05999999999995,256.08L-91.76999999999998,246.35999999999999L-84.47999999999988,236.63999999999996L-77.18999999999997,226.91999999999996L-69.89999999999989,217.19999999999993L-62.60999999999996,207.48000000000005L-55.32000000000005,197.76000000000005L-48.02999999999997,188.04000000000002L-40.73999999999995,178.32000000000002L-33.44999999999999,168.60000000000002L-26.159999999999968,158.88L-18.869999999999976,149.16000000000003L-11.579999999999927,139.43999999999997L-4.289999999999935,129.71999999999997L3.000000000000057,119.99999999999997L10.290000000000077,110.27999999999997L17.58000000000007,100.55999999999995L24.87000000000009,90.83999999999992L32.160000000000025,81.12000000000006L39.45000000000002,71.40000000000003L46.740000000000066,61.68000000000001L54.03000000000003,51.96000000000001L61.32000000000005,42.24000000000001L68.61000000000004,32.52000000000004L75.90000000000006,22.80000000000001L83.19000000000005,13.079999999999984L90.48000000000008,3.359999999999957L97.7700000000001,-6.360000000000014L105.06000000000009,-16.08000000000004L112.35000000000008,-25.800000000000068L119.64000000000001,-35.519999999999925L126.93,-45.23999999999995L134.22000000000003,-54.960000000000036L141.51000000000005,-64.68L148.80000000000004,-74.39999999999998"></path>
    <path class="grid-line" stroke="#2ecc71" stroke-width="1" fill="none" d="M-536.1,927.5999999999999L-528.8100000000001,917.8799999999999L-521.52,908.1599999999999L-514.2299999999999,898.4399999999999L-506.93999999999994,888.72L-499.65,879L-492.36,869.2800000000001L-485.07000000000005,859.5600000000001L-477.78000000000003,849.8399999999999L-470.49000000000007,840.1200000000001L-463.20000000000016,830.4000000000001L-455.9100000000001,820.6800000000001L-448.62,810.96L-441.3300000000001,801.24L-434.04,791.5200000000001L-426.74999999999994,781.8000000000001L-419.46000000000004,772.0799999999999L-412.16999999999996,762.3599999999999L-404.88000000000005,752.64L-397.59,742.92L-390.30000000000007,733.2L-383.01,723.48L-375.7199999999999,713.76L-368.43,704.04L-361.13999999999993,694.3199999999999L-353.85,684.5999999999999L-346.55999999999995,674.8799999999999L-339.26999999999987,665.1599999999999L-331.97999999999996,655.4399999999998L-324.69,645.72L-317.4,636L-310.11,626.28L-302.81999999999994,616.5600000000001L-295.53000000000003,606.8399999999999L-288.23999999999995,597.1200000000001L-280.9499999999999,587.3999999999999L-273.65999999999997,577.6800000000001L-266.37000000000006,567.96L-259.08,558.24L-251.79000000000008,548.5200000000001L-244.5,538.8000000000001L-237.2100000000001,529.0800000000002L-229.91999999999996,519.3600000000001L-222.62999999999994,509.64L-215.34000000000003,499.91999999999996L-208.04999999999995,490.19999999999993L-200.76,480.47999999999996L-193.4699999999999,470.76L-186.18,461.03999999999996L-178.89,451.32L-171.60000000000002,441.6L-164.30999999999995,431.88L-157.02000000000004,422.15999999999997L-149.72999999999996,412.44L-142.43999999999994,402.72L-135.14999999999998,393L-127.85999999999987,383.28000000000003L-120.56999999999991,373.55999999999995L-113.28000000000003,363.8400000000001L-105.99000000000001,354.12L-98.69999999999999,344.40000000000003L-91.40999999999997,334.68000000000006L-84.11999999999995,324.96000000000004L-76.82999999999998,315.24000000000007L-69.53999999999996,305.52L-62.24999999999994,295.79999999999995L-54.95999999999995,286.08L-47.66999999999996,276.36L-40.37999999999997,266.64L-33.08999999999989,256.91999999999996L-25.799999999999955,247.19999999999993L-18.51000000000002,237.48000000000005L-11.21999999999997,227.76000000000005L-3.9299999999999784,218.04000000000002L3.360000000000042,208.32000000000002L10.650000000000034,198.60000000000002L17.940000000000026,188.88L25.230000000000047,179.16L32.520000000000095,169.43999999999997L39.81000000000009,159.71999999999997L47.10000000000008,149.99999999999997L54.39000000000007,140.27999999999994L61.680000000000064,130.55999999999995L68.97000000000011,120.83999999999995L76.26000000000005,111.12L83.55000000000001,101.40000000000003L90.84000000000006,91.68000000000004L98.13000000000005,81.96000000000001L105.42000000000004,72.24000000000001L112.71000000000004,62.51999999999998L120.00000000000006,52.79999999999998L127.29000000000008,43.079999999999984L134.58000000000007,33.35999999999996L141.8700000000001,23.63999999999993L149.16000000000008,13.919999999999959L156.4500000000001,4.199999999999932L163.74,-5.519999999999982L171.03000000000003,-15.240000000000009L178.32000000000005,-24.95999999999998L185.61000000000004,-34.67999999999995L192.90000000000006,-44.400000000000034"></path>
    <path class="grid-line" stroke="#2ecc71" stroke-width="1" fill="none" d="M-491.9999999999999,957.5999999999999L-484.71,947.8799999999999L-477.4199999999999,938.16L-470.1299999999998,928.4399999999999L-462.8399999999999,918.72L-455.55,909.0000000000001L-448.25999999999993,899.2800000000001L-440.96999999999997,889.5600000000001L-433.67999999999995,879.8399999999999L-426.39,870.1200000000001L-419.1000000000001,860.4000000000001L-411.81,850.6800000000001L-404.5199999999999,840.9600000000002L-397.23,831.2400000000001L-389.93999999999994,821.5200000000001L-382.65000000000003,811.8000000000002L-375.35999999999996,802.0799999999999L-368.07000000000005,792.36L-360.78,782.64L-353.49,772.9200000000001L-346.2,763.2L-338.9099999999999,753.48L-331.62,743.76L-324.3299999999999,734.04L-317.03999999999996,724.32L-309.74999999999994,714.5999999999999L-302.46,704.8799999999999L-295.16999999999996,695.1599999999999L-287.8799999999999,685.4399999999999L-280.5899999999999,675.72L-273.29999999999995,666L-266.00999999999993,656.2800000000001L-258.71999999999997,646.5600000000001L-251.42999999999995,636.8399999999999L-244.14,627.1200000000001L-236.8499999999999,617.4L-229.55999999999995,607.6800000000001L-222.26999999999998,597.96L-214.97999999999996,588.2400000000001L-207.68999999999994,578.5200000000001L-200.39999999999998,568.8000000000002L-193.11,559.0800000000002L-185.81999999999994,549.3600000000001L-178.52999999999992,539.64L-171.2399999999999,529.92L-163.94999999999993,520.2L-156.65999999999997,510.48L-149.36999999999995,500.76L-142.07999999999993,491.0400000000001L-134.78999999999996,481.32000000000005L-127.49999999999994,471.6L-120.20999999999992,461.88L-112.91999999999996,452.1600000000001L-105.62999999999988,442.44000000000005L-98.33999999999992,432.72L-91.0499999999999,423.0000000000001L-83.7599999999999,413.2800000000001L-76.46999999999989,403.56000000000006L-69.17999999999998,393.84000000000015L-61.889999999999986,384.1200000000001L-54.599999999999966,374.4000000000001L-47.31,364.68000000000006L-40.019999999999925,354.9600000000001L-32.72999999999993,345.24000000000007L-25.43999999999994,335.52000000000004L-18.14999999999992,325.8L-10.859999999999928,316.08000000000004L-3.5699999999999363,306.36L3.7200000000001125,296.64L11.010000000000133,286.92L18.300000000000125,277.2L25.590000000000032,267.4800000000001L32.88000000000005,257.76000000000005L40.170000000000044,248.04000000000005L47.460000000000036,238.32000000000005L54.75000000000006,228.60000000000005L62.04000000000008,218.88000000000002L69.3300000000001,209.16000000000003L76.62000000000009,199.44L83.91000000000008,189.72L91.20000000000007,180L98.4900000000001,170.27999999999997L105.78000000000011,160.55999999999997L113.07000000000014,150.83999999999995L120.36000000000007,141.12000000000003L127.65000000000006,131.40000000000006L134.94000000000005,121.68000000000006L142.23000000000005,111.96000000000004L149.52000000000004,102.24000000000004L156.8100000000001,92.52000000000001L164.10000000000008,82.80000000000001L171.3900000000001,73.08000000000001L178.6800000000001,63.359999999999985L185.9700000000001,53.639999999999986L193.2600000000001,43.91999999999996L200.5500000000001,34.19999999999999L207.84000000000003,24.480000000000018L215.13000000000005,14.760000000000048L222.42000000000004,5.0400000000000205L229.7100000000001,-4.67999999999995L237.00000000000009,-14.400000000000034"></path>
    <path class="grid-line" stroke="#2ecc71" stroke-width="1" fill="none" d="M-447.9,987.5999999999999L-440.61,977.88L-433.32,968.16L-426.0299999999999,958.4399999999999L-418.73999999999995,948.7200000000001L-411.45000000000005,939.0000000000001L-404.15999999999997,929.2800000000001L-396.87000000000006,919.5600000000001L-389.58,909.84L-382.2900000000001,900.1200000000001L-375.0000000000001,890.4000000000001L-367.7100000000001,880.6800000000002L-360.42,870.9600000000002L-353.13000000000005,861.2400000000001L-345.84000000000003,851.5200000000001L-338.54999999999995,841.8000000000002L-331.26000000000005,832.08L-323.96999999999997,822.36L-316.68,812.64L-309.39,802.9200000000001L-302.1,793.2L-294.80999999999995,783.48L-287.52,773.76L-280.22999999999996,764.0400000000001L-272.94,754.32L-265.65,744.5999999999999L-258.36,734.8799999999999L-251.06999999999994,725.1599999999999L-243.77999999999992,715.4399999999999L-236.49,705.72L-229.20000000000005,696.0000000000001L-221.90999999999997,686.2800000000001L-214.62,676.5600000000002L-207.33000000000004,666.8399999999999L-200.04000000000002,657.1200000000001L-192.74999999999994,647.4L-185.46000000000004,637.6800000000001L-178.17000000000002,627.96L-170.88,618.24L-163.59000000000003,608.52L-156.30000000000007,598.8000000000001L-149.01000000000005,589.0800000000002L-141.71999999999997,579.3600000000001L-134.42999999999995,569.64L-127.13999999999999,559.9200000000001L-119.85,550.2L-112.56,540.48L-105.26999999999998,530.76L-97.98000000000002,521.0400000000001L-90.69,511.32000000000005L-83.4,501.6L-76.11000000000001,491.8800000000001L-68.82000000000002,482.15999999999997L-61.529999999999944,472.44000000000005L-54.23999999999995,462.72L-46.94999999999996,453L-39.65999999999997,443.28L-32.36999999999989,433.55999999999995L-25.08000000000004,423.84000000000015L-17.789999999999964,414.12L-10.499999999999972,404.4000000000001L-3.2099999999999795,394.68000000000006L4.0800000000000125,384.96000000000004L11.370000000000061,375.24L18.660000000000053,365.52L25.950000000000074,355.79999999999995L33.240000000000066,346.08000000000004L40.53000000000006,336.36L47.82000000000008,326.64L55.1100000000001,316.92L62.40000000000009,307.19999999999993L69.69,297.4800000000001L76.98000000000002,287.76000000000005L84.27000000000004,278.04L91.56000000000006,268.32000000000005L98.85000000000004,258.6L106.14000000000003,248.88000000000002L113.43000000000006,239.16000000000003L120.72000000000006,229.44L128.01000000000005,219.72L135.3000000000001,210L142.5900000000001,200.27999999999997L149.88000000000008,190.55999999999995L157.1700000000001,180.83999999999995L164.46000000000004,171.12000000000006L171.75000000000003,161.40000000000003L179.04000000000002,151.68000000000004L186.33000000000007,141.96L193.62000000000006,132.24000000000004L200.91000000000005,122.52000000000004L208.20000000000005,112.80000000000001L215.4900000000001,103.07999999999998L222.7800000000001,93.35999999999999L230.0700000000001,83.63999999999999L237.3600000000001,73.91999999999996L244.6500000000001,64.19999999999996L251.94000000000003,54.480000000000075L259.23,44.76000000000002L266.52000000000004,35.04000000000002L273.81000000000006,25.319999999999993L281.1,15.600000000000023"></path>
    <path class="grid-line" stroke="#2ecc71" stroke-width="1" fill="none" d="M-403.7999999999999,1017.6L-396.51,1007.88L-389.2199999999999,998.16L-381.92999999999984,988.4399999999999L-374.63999999999993,978.7200000000001L-367.34999999999997,969.0000000000001L-360.0599999999999,959.2800000000001L-352.77,949.5600000000002L-345.4799999999999,939.84L-338.19,930.1200000000001L-330.90000000000003,920.4000000000002L-323.61,910.6800000000002L-316.31999999999994,900.9600000000002L-309.03000000000003,891.2400000000001L-301.73999999999995,881.5200000000002L-294.45,871.8000000000002L-287.16,862.08L-279.87,852.36L-272.58000000000004,842.6400000000001L-265.29,832.9200000000001L-258.00000000000006,823.2L-250.70999999999998,813.48L-243.41999999999996,803.76L-236.13,794.0400000000001L-228.83999999999997,784.3200000000002L-221.54999999999995,774.5999999999999L-214.26,764.8799999999999L-206.9699999999999,755.16L-199.67999999999995,745.4399999999999L-192.39,735.72L-185.10000000000002,726.0000000000001L-177.81,716.2800000000002L-170.51999999999998,706.5600000000002L-163.23000000000002,696.8399999999999L-155.94,687.12L-148.64999999999998,677.4L-141.36,667.6800000000001L-134.07000000000002,657.9600000000002L-126.78000000000003,648.24L-119.49000000000001,638.52L-112.20000000000005,628.8L-104.91000000000004,619.08L-97.61999999999998,609.36L-90.32999999999998,599.6400000000001L-83.03999999999996,589.9200000000001L-75.75,580.2L-68.45999999999998,570.48L-61.16999999999999,560.76L-53.879999999999995,551.0400000000001L-46.59,541.32L-39.30000000000001,531.6000000000001L-32.00999999999999,521.8800000000001L-24.72,512.16L-17.42999999999995,502.43999999999994L-10.139999999999958,492.71999999999997L-2.849999999999966,483L4.440000000000055,473.28L11.730000000000075,463.55999999999995L19.019999999999982,453.84000000000015L26.310000000000002,444.12L33.599999999999994,434.4L40.889999999999986,424.68L48.18000000000001,414.96L55.47000000000003,405.24000000000007L62.76000000000002,395.52L70.05000000000004,385.8L77.34000000000005,376.08000000000004L84.63000000000004,366.36L91.92000000000007,356.64L99.21000000000006,346.91999999999996L106.50000000000006,337.2L113.78999999999999,327.48L121.07999999999998,317.76000000000005L128.37,308.04L135.66000000000003,298.32000000000005L142.95000000000005,288.6L150.24000000000004,278.88L157.53000000000003,269.16L164.82000000000002,259.44L172.11000000000004,249.72L179.40000000000006,239.99999999999997L186.69000000000005,230.27999999999997L193.98000000000008,220.55999999999995L201.2700000000001,210.83999999999995L208.56,201.12000000000006L215.85000000000002,191.40000000000003L223.14000000000001,181.68L230.43000000000004,171.96L237.72000000000003,162.24L245.01000000000005,152.52L252.30000000000007,142.79999999999998L259.59000000000003,133.07999999999998L266.88000000000005,123.35999999999996L274.1700000000001,113.63999999999999L281.4600000000001,103.91999999999996L288.7500000000001,94.19999999999996L296.04,84.48000000000005L303.33000000000004,74.76000000000002L310.62,65.04000000000002L317.91,55.32000000000005L325.20000000000005,45.599999999999994"></path>
    <path class="grid-line" stroke="#2ecc71" stroke-width="1" fill="none" d="M-359.69999999999993,1047.6L-352.41,1037.88L-345.11999999999995,1028.1599999999999L-337.82999999999987,1018.44L-330.53999999999996,1008.72L-323.25000000000006,999L-315.96,989.28L-308.6700000000001,979.5600000000001L-301.38,969.84L-294.09000000000003,960.12L-286.8000000000001,950.4000000000001L-279.51000000000005,940.6800000000001L-272.21999999999997,930.96L-264.93000000000006,921.24L-257.64,911.5200000000001L-250.35000000000002,901.8000000000001L-243.06,892.08L-235.77000000000004,882.3600000000001L-228.48000000000002,872.6400000000001L-221.19000000000005,862.9200000000001L-213.90000000000003,853.2L-206.60999999999996,843.4800000000001L-199.31999999999994,833.7600000000001L-192.02999999999997,824.0400000000001L-184.74,814.3200000000002L-177.45,804.5999999999999L-170.15999999999997,794.8799999999999L-162.86999999999992,785.1599999999999L-155.57999999999993,775.4399999999998L-148.29,765.7200000000001L-141,756.0000000000001L-133.71,746.2800000000002L-126.42000000000002,736.5600000000002L-119.13,726.8399999999999L-111.84000000000002,717.12L-104.54999999999994,707.4L-97.26000000000002,697.6800000000001L-89.97000000000003,687.96L-82.68,678.24L-75.39000000000004,668.52L-68.10000000000002,658.8000000000001L-60.810000000000045,649.08L-53.51999999999998,639.3600000000001L-46.22999999999996,629.64L-38.93999999999997,619.9200000000001L-31.649999999999977,610.2L-24.359999999999985,600.48L-17.069999999999993,590.76L-9.780000000000001,581.04L-2.4899999999999807,571.32L4.800000000000011,561.6L12.089999999999975,551.88L19.379999999999967,542.16L26.670000000000016,532.4399999999999L33.960000000000036,522.72L41.25000000000003,513L48.54000000000002,503.28L55.83000000000004,493.55999999999995L63.11999999999995,483.84000000000003L70.40999999999997,474.12L77.69999999999997,464.4L84.98999999999997,454.68L92.28,444.96000000000004L99.57,435.24L106.85999999999999,425.52L114.15000000000002,415.79999999999995L121.44000000000001,406.08L128.73000000000002,396.36L136.02000000000004,386.64L143.31000000000003,376.91999999999996L150.60000000000002,367.19999999999993L157.88999999999996,357.4800000000001L165.18,347.76000000000005L172.47,338.04L179.76,328.32L187.05,318.6L194.34,308.88L201.63000000000005,299.16L208.92000000000004,289.44L216.21000000000004,279.71999999999997L223.50000000000003,270L230.79000000000002,260.28L238.08000000000007,250.55999999999995L245.3700000000001,240.83999999999995L252.66000000000003,231.12000000000006L259.95,221.40000000000003L267.24,211.68L274.53000000000003,201.96L281.82,192.24L289.11,182.51999999999998L296.40000000000003,172.79999999999998L303.69000000000005,163.07999999999998L310.9800000000001,153.35999999999996L318.27000000000004,143.63999999999996L325.56000000000006,133.91999999999993L332.85,124.19999999999993L340.14,114.48000000000005L347.43000000000006,104.76000000000002L354.71999999999997,95.04000000000002L362.01000000000005,85.32L369.3,75.6"></path>
    <path class="grid-line" stroke="#2ecc71" stroke-width="1" fill="none" d="M-315.6,1077.6L-308.31000000000006,1067.8799999999999L-301.02000000000004,1058.1599999999999L-293.72999999999996,1048.44L-286.44000000000005,1038.72L-279.1500000000001,1029L-271.86,1019.2800000000001L-264.5700000000001,1009.5600000000001L-257.28000000000003,999.8399999999999L-249.99000000000012,990.1200000000001L-242.70000000000016,980.4000000000001L-235.41000000000008,970.6800000000001L-228.12000000000006,960.96L-220.83000000000015,951.2400000000001L-213.54000000000008,941.5200000000001L-206.25000000000006,931.8000000000001L-198.96000000000006,922.0799999999999L-191.67000000000007,912.36L-184.38000000000008,902.64L-177.0900000000001,892.92L-169.8000000000001,883.1999999999999L-162.51,873.48L-155.22000000000003,863.76L-147.93000000000004,854.04L-140.64000000000004,844.32L-133.35000000000002,834.5999999999999L-126.06000000000006,824.8799999999999L-118.76999999999998,815.1599999999999L-111.47999999999998,805.4399999999998L-104.19000000000005,795.72L-96.90000000000003,786L-89.61000000000007,776.28L-82.32000000000005,766.5600000000001L-75.03000000000006,756.8399999999999L-67.74000000000005,747.1200000000001L-60.45,737.3999999999999L-53.16000000000008,727.6800000000001L-45.87000000000006,717.96L-38.5800000000001,708.24L-31.290000000000077,698.5200000000001L-24.000000000000085,688.8000000000001L-16.71000000000008,679.0800000000002L-9.420000000000016,669.3600000000001L-2.130000000000024,659.64L5.159999999999968,649.92L12.449999999999989,640.2L19.739999999999995,630.48L27.029999999999987,620.76L34.31999999999999,611.04L41.609999999999985,601.3199999999999L48.89999999999998,591.5999999999999L56.18999999999997,581.88L63.47999999999996,572.1600000000001L70.77000000000004,562.44L78.06000000000003,552.72L85.35000000000002,543L92.64000000000003,533.28L99.93000000000005,523.56L107.21999999999994,513.84L114.50999999999998,504.12L121.79999999999997,494.40000000000003L129.08999999999997,484.68000000000006L136.38,474.96000000000004L143.67,465.24000000000007L150.96,455.5199999999999L158.25000000000003,445.79999999999995L165.54000000000002,436.0799999999999L172.83,426.35999999999996L180.12000000000003,416.63999999999993L187.41000000000005,406.91999999999996L194.70000000000005,397.19999999999993L201.98999999999998,387.48L209.27999999999997,377.76000000000005L216.57,368.04L223.85999999999999,358.32000000000005L231.14999999999998,348.6L238.44,338.88L245.73000000000002,329.15999999999997L253.02,319.44L260.31,309.71999999999997L267.6,299.99999999999994L274.89000000000004,290.28L282.18,280.55999999999995L289.4700000000001,270.8399999999999L296.76,261.12L304.05,251.40000000000003L311.34,241.68L318.63,231.95999999999998L325.92,222.23999999999998L333.21,212.51999999999998L340.5,202.79999999999998L347.79,193.07999999999998L355.08000000000004,183.35999999999996L362.37,173.63999999999996L369.6600000000001,163.91999999999993L376.95000000000005,154.19999999999993L384.24,144.48000000000005L391.53,134.76000000000002L398.82,125.04000000000002L406.10999999999996,115.32000000000002L413.40000000000003,105.6"></path>
    <circle r="3" cx="310.8" cy="109.19999999999996"></circle>
  </g>
</svg>
